<svg width="808" height="886" viewBox="0 0 808 886" fill="none" xmlns="http://www.w3.org/2000/svg">
<circle cx="366.5" cy="358.5" r="358.5" fill="#EAFFFC"/>
<g filter="url(#filter0_d_31_1339)">
<path d="M800.041 689.994L789.078 653.991L799.506 631.766L804 583.884L787.331 568.584L741.509 608.547L696.066 584.647L695.075 564.628L626.112 552.45L630.831 504.875L656.559 460.803L572.678 392.297L513.534 392.144L474.944 362L444.422 367.328L443.203 400.134L467.409 395.416L464.213 412.084L393.272 405.994L376.753 418.628L312.281 422.206L275.366 418.097L268.744 435.072L241.722 452.197L183.491 433.016L162.862 459.884L188.666 475.184L118.028 557.619L77.1531 576.8L73.1188 625.134L17.5531 666.922L4 699.356L12.525 736.578L14.8094 784.684L41.5281 761.85L22.4219 745.331L50.2062 706.359L105.847 690.069L151.213 707.347L149.994 722.191H149.919L135.684 721.125L145.656 796.1L183.334 858.516L237.834 855.091L271.25 835.528L324.456 854.863L376.597 799.372L370.05 765.803L427.825 714.422L438.709 724.469L434.978 767.019L466.797 801.197L509.5 816.269L528.834 877.469L550.909 864.984L536.828 841.234L553.269 802.416L570.091 788.106L608.834 709.781L642.553 756.138L663.484 756.213L704.434 734.519L731.228 774.328L747.138 722.95L727.5 714.653L738.156 672.713L800.041 689.994Z" fill="#809E3E" fill-opacity="0.86" shape-rendering="crispEdges"/>
</g>
<path d="M380.103 555.403C380.103 561.055 377.452 562 367.675 562C357.916 562 355.266 561.055 355.266 555.403C355.266 549.757 357.916 545.177 367.675 545.177C377.452 545.177 380.103 549.757 380.103 555.403Z" fill="#E54C3C"/>
<path d="M342.303 555.403C342.303 561.055 339.652 562 329.875 562C320.11 562 317.46 561.055 317.46 555.403C317.46 549.757 320.11 545.177 329.875 545.177C339.652 545.177 342.303 549.757 342.303 555.403Z" fill="#E54C3C"/>
<path d="M282.903 345.247L274.411 384.211L289.269 385.53L299.663 343.87L282.903 345.247Z" fill="#F9C394"/>
<path d="M380.725 250.958C380.725 253.475 379.06 255.521 377.003 255.521H374.22C372.175 255.521 370.522 253.475 370.522 250.958C370.522 248.44 372.175 246.401 374.22 246.401H377.003C379.06 246.401 380.725 248.44 380.725 250.958Z" fill="#333333"/>
<path d="M323.699 218.452C323.699 220.976 322.034 223.01 319.989 223.01H317.212C315.161 223.01 313.502 220.976 313.502 218.452C313.502 215.929 315.161 213.889 317.212 213.889H319.989C322.034 213.889 323.699 215.929 323.699 218.452Z" fill="#333333"/>
<path d="M323.699 229.67C323.699 232.193 322.034 234.227 319.989 234.227H317.212C315.161 234.227 313.502 232.193 313.502 229.67C313.502 227.146 315.161 225.107 317.212 225.107H319.989C322.034 225.107 323.699 227.146 323.699 229.67Z" fill="#333333"/>
<path d="M323.699 240.311C323.699 242.828 322.034 244.874 319.989 244.874H317.212C315.161 244.874 313.502 242.828 313.502 240.311C313.502 237.793 315.161 235.748 317.212 235.748H319.989C322.034 235.748 323.699 237.793 323.699 240.311Z" fill="#333333"/>
<path d="M323.699 250.958C323.699 253.475 322.034 255.521 319.989 255.521H317.212C315.161 255.521 313.502 253.475 313.502 250.958C313.502 248.44 315.161 246.401 317.212 246.401H319.989C322.034 246.401 323.699 248.44 323.699 250.958Z" fill="#333333"/>
<path d="M380.725 218.452C380.725 220.976 379.06 223.01 377.003 223.01H374.22C372.175 223.01 370.522 220.976 370.522 218.452C370.522 215.929 372.175 213.889 374.22 213.889H377.003C379.06 213.889 380.725 215.929 380.725 218.452Z" fill="#333333"/>
<path d="M314.965 273.658H322.236V204.556H314.965V273.658Z" fill="#333333"/>
<path d="M371.731 273.658H379.002V204.556H371.731V273.658Z" fill="#333333"/>
<path d="M381.117 247.685L381.958 248.664L384.476 248.855L384.326 250.692L384.695 252.317L386.262 254.65L382.24 254.524L381.658 255.768L381.906 259.438L379.688 259.461L377.625 259.916L376.099 257.923L373.558 258.643L371.305 257.733L373.95 253.855L371.945 252.962L368.626 251.021L370.821 249.137L373.431 248.457L373.846 246.585L375.234 245.398L376.836 243.917L378.657 247.138L381.024 244.09L381.117 247.685Z" fill="#C9133B"/>
<path d="M381.203 251.897L381.082 252.663L381.958 253.896L381.054 254.53L380.454 255.331L379.971 256.944L378.484 255.043L377.683 255.239L376.082 256.771L375.223 255.751L374.221 254.979L374.561 253.51L373.247 252.611L372.803 251.223L375.615 250.958L375.252 249.685L374.872 247.415L376.589 247.708L377.908 248.642L378.928 248.123L380.011 248.313L381.307 248.475L380.506 250.555L382.828 250.48L381.203 251.897Z" fill="#E81644"/>
<path d="M312.793 247.685L311.946 248.664L309.423 248.855L309.578 250.692L309.204 252.317L307.637 254.65L311.67 254.524L312.257 255.768L312.004 259.438L314.222 259.461L316.284 259.916L317.811 257.923L320.346 258.643L322.61 257.733L319.954 253.855L321.971 252.962L325.278 251.021L323.083 249.137L320.479 248.457L320.058 246.585L318.67 245.398L317.068 243.917L315.253 247.138L312.885 244.09L312.793 247.685Z" fill="#C9133B"/>
<path d="M312.707 251.897L312.833 252.663L311.946 253.896L312.856 254.53L313.467 255.331L313.939 256.944L315.432 255.043L316.221 255.239L317.823 256.771L318.681 255.751L319.678 254.979L319.355 253.51L320.663 252.611L321.101 251.223L318.289 250.958L318.652 249.685L319.027 247.415L317.321 247.708L316.008 248.642L314.976 248.123L313.893 248.313L312.603 248.475L313.392 250.555L311.076 250.48L312.707 251.897Z" fill="#E81644"/>
<path d="M375.12 283.567L379.492 254.501L379.066 254.414C376.871 254.034 374.826 253.706 373.034 253.441C368.863 252.819 366.068 252.507 366.068 252.507L346.319 250.289L326.569 252.507C326.569 252.507 320.975 253.13 313.773 254.38L313.566 254.414L313.496 254.432L313.156 254.501L317.518 283.567H375.12Z" fill="white"/>
<path d="M353.826 252.617C336.939 249.846 331.109 240.155 331.109 240.155L354.465 229.814H335.908C332.094 229.814 328.988 232.539 328.988 235.903V251.592C328.988 254.956 332.094 257.681 335.908 257.681H358.008C361.822 257.681 364.905 254.956 364.905 251.592V251.246C362.324 252.692 358.763 253.424 353.826 252.617Z" fill="#F9C394"/>
<path d="M358.008 229.813H354.465L329.478 236.998C329.478 236.998 333.309 250.018 353.825 252.617C358.78 253.25 362.323 254.259 364.904 252.818V235.903C364.904 232.538 361.822 229.813 358.008 229.813Z" fill="#D1A47C"/>
<path d="M379.383 200.915C378.525 200.65 377.539 201.261 376.594 202.499C376.623 201.883 376.629 201.289 376.629 200.684C376.629 195.845 375.811 191.605 374.353 187.883C368.69 188.787 362.825 188.044 357.697 185.169L357.501 185.135C356.92 185.042 356.453 184.968 356.05 184.904C353.463 184.639 350.876 184.38 348.272 184.276C347.517 184.247 346.405 184.386 345.426 184.53L344.331 185.135C336.939 190.199 327.6 190.268 319.563 187.019C318.094 191.219 317.276 195.839 317.276 200.684C317.276 201.289 317.281 201.883 317.322 202.499C316.365 201.261 315.374 200.65 314.516 200.915C312.43 201.566 315.202 206.941 316.515 213.06C317.829 219.167 321.28 223.661 323.36 223.01L323.371 223.004C328.62 236.169 336.91 248.705 346.952 248.705C357.075 248.705 367.566 238.508 370.626 222.151C372.55 221.598 374.785 217.577 375.932 212.271C377.234 206.164 381.474 201.566 379.383 200.915Z" fill="#FFD8B4"/>
<path d="M314.965 204.556C315.178 207.195 316.14 208.56 320.121 209.223C350.524 214.281 349.786 172.949 349.786 172.949C322.236 171.67 314.827 187.67 314.965 204.556Z" fill="#333333"/>
<path d="M379.002 204.556C378.783 207.195 377.821 208.56 373.846 209.223C343.449 214.281 344.175 172.949 344.175 172.949C371.732 171.67 379.141 187.67 379.002 204.556Z" fill="#333333"/>
<path d="M346.462 170.454C331.823 170.454 316.1 183.181 316.1 193.817C316.1 199.221 320.167 201.162 326.084 201.767C329.201 192.503 336.057 185.336 346.693 185.336C357.294 185.336 364.138 192.445 367.278 201.658C373.466 201.007 377.81 199.019 377.81 193.598C377.81 182.957 361.096 170.454 346.462 170.454Z" fill="#333333"/>
<path d="M380.725 229.67C380.725 232.193 379.06 234.227 377.003 234.227H374.22C372.175 234.227 370.522 232.193 370.522 229.67C370.522 227.146 372.175 225.107 374.22 225.107H377.003C379.06 225.107 380.725 227.146 380.725 229.67Z" fill="#333333"/>
<path d="M380.725 240.311C380.725 242.828 379.06 244.874 377.003 244.874H374.22C372.175 244.874 370.522 242.828 370.522 240.311C370.522 237.793 372.175 235.748 374.22 235.748H377.003C379.06 235.748 380.725 237.793 380.725 240.311Z" fill="#333333"/>
<path d="M299.467 259.415C300.516 258.879 301.512 258.372 302.498 257.9C300.781 258.724 296.045 264.197 295.665 264.664C284.436 278.785 277.655 349.684 277.655 349.684L300.418 354.137C301.824 338.507 308.38 317.201 307.637 298.644C306.963 281.775 301.19 267.942 299.467 259.415Z" fill="#EAE7EB"/>
<path d="M393.152 259.542L393.175 259.415C388.963 257.272 385.72 255.636 379.492 254.495V254.501C385.714 255.659 387.771 257.318 393.088 259.513L393.152 259.542Z" fill="#11130E"/>
<path d="M313.156 254.495L312.205 254.691L313.156 254.501V254.495Z" fill="#11130E"/>
<path d="M393.152 259.542L393.089 259.513C387.771 257.318 385.714 255.659 379.492 254.501L375.119 283.567H317.517L313.156 254.501L312.205 254.691C311.255 254.881 310.373 255.083 309.549 255.296L308.881 255.474L307.619 255.855L306.951 256.073L305.816 256.483L305.171 256.736L304.134 257.162L303.477 257.456L302.498 257.9C301.512 258.372 300.516 258.879 299.467 259.415C303.091 277.333 316.895 318.59 314.769 348.428H377.879C375.753 318.653 389.528 277.5 393.152 259.542Z" fill="#11130E"/>
<path d="M327.064 290.077C327.064 291.241 326.13 292.174 324.972 292.174C323.814 292.174 322.881 291.241 322.881 290.077C322.881 288.925 323.814 287.992 324.972 287.992C326.13 287.992 327.064 288.925 327.064 290.077Z" fill="#C9133B"/>
<path d="M334.179 290.077C334.179 291.241 333.246 292.174 332.093 292.174C330.93 292.174 329.996 291.241 329.996 290.077C329.996 288.925 330.93 287.992 332.093 287.992C333.246 287.992 334.179 288.925 334.179 290.077Z" fill="#C9133B"/>
<path d="M341.295 290.077C341.295 291.241 340.361 292.174 339.203 292.174C338.045 292.174 337.118 291.241 337.118 290.077C337.118 288.925 338.045 287.992 339.203 287.992C340.361 287.992 341.295 288.925 341.295 290.077Z" fill="#C9133B"/>
<path d="M348.415 290.077C348.415 291.241 347.482 292.174 346.318 292.174C345.16 292.174 344.233 291.241 344.233 290.077C344.233 288.925 345.16 287.992 346.318 287.992C347.482 287.992 348.415 288.925 348.415 290.077Z" fill="#C9133B"/>
<path d="M355.531 290.077C355.531 291.241 354.597 292.174 353.439 292.174C352.281 292.174 351.348 291.241 351.348 290.077C351.348 288.925 352.281 287.992 353.439 287.992C354.597 287.992 355.531 288.925 355.531 290.077Z" fill="#C9133B"/>
<path d="M362.641 290.077C362.641 291.241 361.719 292.174 360.555 292.174C359.397 292.174 358.464 291.241 358.464 290.077C358.464 288.925 359.397 287.992 360.555 287.992C361.719 287.992 362.641 288.925 362.641 290.077Z" fill="#C9133B"/>
<path d="M369.767 290.077C369.767 291.241 368.828 292.174 367.664 292.174C366.512 292.174 365.578 291.241 365.578 290.077C365.578 288.925 366.512 287.992 367.664 287.992C368.828 287.992 369.767 288.925 369.767 290.077Z" fill="#C9133B"/>
<path d="M334.116 298.137L346.699 299.837L359.281 298.137H334.116ZM328.412 303.841L346.699 306.416L364.991 303.841L346.699 301.364L328.412 303.841ZM327.381 310.657L346.699 314.528L366.022 310.657L346.699 307.937L327.381 310.657ZM329.461 319.523L346.699 323.205L363.931 319.523L346.699 316.072L329.461 319.523ZM326.868 328.983L346.699 332.429L366.535 328.983L346.699 324.749L326.868 328.983ZM367.664 337.591L367.537 337.579L346.699 333.967L325.854 337.579L324.984 336.963L325.595 336.087L342.274 333.195L322.754 329.807L322.126 329.076L322.726 328.321L343.075 323.977L325.566 320.238L324.972 319.495L325.577 318.757L342.844 315.3L322.737 311.273L322.126 310.507L322.777 309.781L341.277 307.177L322.777 304.573L322.126 303.818L322.777 303.075L341.058 300.597L322.777 298.131L322.126 297.325L322.881 296.622H370.522L371.276 297.325L370.625 298.131L352.345 300.597L370.625 303.075L371.276 303.818L370.625 304.573L352.126 307.177L370.625 309.781L371.276 310.507L370.666 311.273L350.547 315.3L367.814 318.757L368.419 319.495L367.825 320.238L350.322 323.977L370.677 328.321L371.276 329.076L370.648 329.807L351.123 333.195L367.796 336.087L368.407 336.963L367.664 337.591Z" fill="#EAE7EB"/>
<path d="M287.599 396.673C283.946 404.376 276.595 408.535 271.196 405.966C265.786 403.396 264.375 395.077 268.033 387.374C271.698 379.665 279.043 375.505 284.447 378.075C289.852 380.645 291.263 388.97 287.599 396.673Z" fill="#F9C394"/>
<path d="M409.797 345.247L418.289 384.211L403.43 385.53L393.037 343.87L409.797 345.247Z" fill="#F9C394"/>
<path d="M397.03 264.664C396.655 264.197 393.775 259.692 392.905 259.248V259.254L393.239 259.415C391.51 267.942 385.737 281.775 385.058 298.644C384.314 317.201 390.877 338.507 392.277 354.137L415.051 349.684C415.051 349.684 408.264 278.785 397.03 264.664Z" fill="#EAE7EB"/>
<path d="M405.089 396.673C408.759 404.376 416.099 408.535 421.509 405.966C426.913 403.396 428.325 395.077 424.672 387.374C421.002 379.665 413.657 375.505 408.252 378.075C402.848 380.645 401.437 388.97 405.089 396.673Z" fill="#F9C394"/>
<path d="M333.493 348.427H314.769C314.769 348.427 269.767 443.386 282.413 551.733C292.438 551.733 302.365 551.733 311.387 551.733C299.473 467.733 318.237 384.251 333.493 348.427Z" fill="#4A4B4F"/>
<path d="M359.909 348.427H333.493C318.237 384.251 299.472 467.733 311.387 551.733C325.554 551.733 337.451 551.733 343.818 551.733C347.004 551.733 348.824 551.733 348.824 551.733C355.3 551.733 367.508 551.733 382.021 551.733C393.93 467.733 375.159 384.251 359.909 348.427Z" fill="#11130E"/>
<path d="M377.879 348.427H359.909C375.159 384.251 393.93 467.733 382.021 551.733C390.824 551.733 400.486 551.733 410.223 551.733C422.88 443.386 377.879 348.427 377.879 348.427Z" fill="#4A4B4F"/>
<path d="M473.678 537.336H450.737L444.244 502.267H474.064L473.678 537.336Z" fill="#EAE7EB"/>
<path d="M457.61 557.979H473.39V537.336H447.965L457.61 557.979Z" fill="#333333"/>
<path d="M448.248 557.979C448.248 557.979 423.75 562.075 422.944 559.407C418.767 551.422 427.103 549.867 438.327 540.464C449.63 530.975 445.713 522.99 451.226 531.246C456.746 539.502 469.444 536.305 473.678 537.336C475.579 537.802 469.253 546.491 463.233 550.99C455.853 556.504 448.242 557.979 448.248 557.979Z" fill="#333333"/>
<path d="M482.113 537.336H505.043L511.542 502.267H481.721L482.113 537.336Z" fill="#EAE7EB"/>
<path d="M497.893 557.979H482.113V537.336H507.544L497.893 557.979Z" fill="#333333"/>
<path d="M507.544 557.979C507.544 557.979 532.041 562.075 532.836 559.407C537.024 551.422 528.688 549.867 517.459 540.464C506.161 530.975 510.079 522.99 504.559 531.246C499.04 539.502 486.342 536.305 482.113 537.336C480.212 537.802 486.532 546.491 492.547 550.99C499.927 556.504 507.544 557.979 507.544 557.979Z" fill="#333333"/>
<path d="M437.485 357.963C437.485 357.963 434.461 398.027 434.795 411.399C435.365 434.225 443.955 511.433 443.955 511.433H474.859L477.913 411.399L480.972 511.433H511.87C511.87 511.433 519.129 434.191 519.515 411.399C519.734 398.027 516.819 357.963 516.819 357.963H437.485Z" fill="#333333"/>
<path d="M517.257 366.57H437.486V357.962H517.257V366.57Z" fill="#5E5E5E"/>
<path d="M486.566 293.735C487.119 273.651 495.652 253.527 499.823 244.804C496.28 244.274 493.912 244.009 493.912 244.009L477.158 242.125L460.398 244.009C460.398 244.009 446.306 245.565 435.371 248.785C448.374 271.842 438.926 332.44 441.046 358.464L512.187 358.475C509.404 350.364 486.209 306.75 486.566 293.735Z" fill="#EAE7EB"/>
<path d="M530.37 254.334C528.855 252.657 525.991 251.206 522.523 249.961L519.516 326.103H542.036C542.036 326.103 541.259 266.312 530.37 254.334Z" fill="white"/>
<path d="M483.899 243.825C468.649 241.325 463.383 232.568 463.383 232.568L484.487 223.228H467.715C464.27 223.228 461.47 225.688 461.47 228.725V242.898C461.47 245.94 464.27 248.4 467.715 248.4H487.673C491.118 248.4 493.912 245.94 493.912 242.898V242.592C491.579 243.889 488.364 244.563 483.899 243.825Z" fill="#F9C394"/>
<path d="M487.673 223.228H484.487L461.914 229.716C461.914 229.716 465.376 241.486 483.899 243.825C488.375 244.401 491.579 245.312 493.912 244.01V228.725C493.912 225.688 491.118 223.228 487.673 223.228Z" fill="#D1A47C"/>
<path d="M506.997 197.124C506.219 196.882 505.326 197.435 504.467 198.558C504.49 198.005 504.502 197.458 504.502 196.916C504.502 183.746 497.882 175.409 488.416 170.455C487.172 175.098 483.438 176.014 477.193 176.014C474.791 176.014 472.757 175.432 471.092 174.464C469.381 175.536 467.261 176.181 464.72 176.181C462.254 176.181 460.174 175.571 458.486 174.545C453.791 180.329 450.887 188.211 450.887 196.916C450.887 197.458 450.904 198.005 450.921 198.558C450.063 197.435 449.176 196.882 448.392 197.124C446.508 197.711 445.938 202.655 447.13 208.18C448.323 213.693 450.812 217.698 452.696 217.11C453.359 216.902 454.505 214.01 454.828 212.869C459.385 226.144 467.554 240.293 477.694 240.293C487.829 240.293 498.429 228.984 499.749 211.285C500.071 212.426 502.03 216.902 502.687 217.11C504.577 217.698 507.071 213.693 508.253 208.18C509.445 202.655 508.881 197.711 506.997 197.124Z" fill="#FFD8B4"/>
<path d="M505.769 183.562C505.026 183.689 504.265 183.775 503.447 183.775C495.617 183.775 491.728 180.646 491.757 174.574C486.14 174.551 480.534 174.257 475.119 172.857C473.39 176.452 469.933 176.181 464.719 176.181C462.132 176.181 459.984 175.507 458.255 174.39C458.013 175.41 457.858 176.481 457.84 177.622C457.431 192.094 475.677 194.462 477.619 190.585C479.042 195.574 483.035 193.247 483.311 188.77C485.524 194.543 491.285 194.779 492.403 190.81C498.198 198.593 499.414 204.683 500.659 212.91L504.467 198.559C506.38 193.569 506.875 188.568 505.769 183.562Z" fill="#AD8661"/>
<path d="M460.398 175.45C459.327 175.058 458.37 177.501 457.535 176.861C451.687 178.987 448.755 183.014 450.921 198.558L454.827 212.869C453.537 192.808 463.4 190.089 460.398 175.45Z" fill="#AD8661"/>
<path d="M477.152 236.664C474.756 236.439 471.489 235.615 469.115 233.656C469.571 230.931 470.256 228.281 471.604 225.821C473.085 224.83 476.017 225.268 477.884 225.268C479.762 225.268 482.332 224.83 483.824 225.821C485.178 228.281 485.852 230.931 486.307 233.656C483.933 235.615 479.693 236.439 477.152 236.664ZM499.31 205.558C497.553 209.943 496.712 214.338 496.632 218.746C496.222 223.418 494.546 227.641 492.097 231.599C490.524 232.36 489.05 232.861 487.655 233.086C487.333 230.182 486.774 227.198 485.933 224.104C483.922 222.318 480.321 221.177 477.504 221.177C474.675 221.177 471.501 222.318 469.496 224.104C468.654 227.198 468.096 230.182 467.779 233.086C466.379 232.861 464.898 232.36 463.331 231.599C460.882 227.641 459.206 223.418 458.797 218.746C458.722 214.338 457.875 209.943 456.118 205.558L453.318 206.428L456.291 219.72C457.287 224.248 459.338 228.494 462.236 232.51C463.849 233.391 465.192 234.595 466.246 236.139C468.747 239.418 472.866 241.088 476.559 241.993L477.158 242.125L477.717 242.004C481.594 241.106 486.676 239.423 489.188 236.139C490.231 234.595 491.579 233.391 493.192 232.51C496.084 228.494 498.135 224.248 499.143 219.72L502.111 206.428L499.31 205.558Z" fill="#AD8661"/>
<path d="M452.672 202.407C452.828 203.686 453.035 205.011 453.318 206.428L456.976 208.139C456.976 208.139 456.123 205.535 455.916 203.26C454.723 203.115 453.64 202.822 452.672 202.407Z" fill="#AD8661"/>
<path d="M523.11 192.653C523.11 200.206 502.779 206.336 477.694 206.336C452.609 206.336 432.283 200.206 432.283 192.653C432.283 185.094 452.609 178.964 477.694 178.964C502.779 178.964 523.11 185.094 523.11 192.653Z" fill="#262626"/>
<path d="M478.967 185.918C469.299 185.918 460.294 182.628 453.006 177.121L452.909 186.511C452.909 189.755 464.264 192.653 477.694 192.653C491.118 192.653 502.012 190.026 502.012 186.782V179.137C495.3 183.418 487.379 185.918 478.967 185.918Z" fill="#A3A3A3"/>
<path d="M455.57 189.19C457.454 190.101 460.249 190.907 463.625 191.501L466.436 184.311L458.664 181.274L455.57 189.19Z" fill="#BDBDBD"/>
<path d="M477.515 163.017C473.482 163.017 458.635 160.551 456.244 163.299C454.228 165.61 453.007 168.628 453.007 171.941V182.479C453.007 185.722 464.264 188.476 477.694 188.476C491.118 188.476 502.012 185.843 502.012 182.611V171.941C502.012 168.628 500.797 165.61 498.775 163.299C496.378 160.551 481.542 163.017 477.515 163.017Z" fill="#3C3C3C"/>
<path d="M461.286 167.43C461.286 167.43 458.111 166.543 457.812 174.689C457.506 182.83 457.812 182.208 457.812 182.208C457.812 182.208 463.06 184.668 465.163 184.858C467.26 185.048 465.192 172.004 465.163 170.553C465.129 169.106 465.376 166.053 461.286 167.43Z" fill="#757374"/>
<path d="M499.743 164.572C496.885 166.791 494.546 172.126 494.523 173.186C494.488 174.637 495.779 173.652 494.523 174.355C493.428 174.966 492.65 184.651 493.855 186.99L493.872 186.984C498.608 185.964 501.684 184.507 501.984 182.87C502.036 181.292 502.041 178.624 501.874 174.355C501.788 171.982 501.851 172.805 501.967 170.956C501.794 168.6 500.999 166.422 499.743 164.572Z" fill="#262626"/>
<path d="M454.81 192.111L443.166 199.958C443.166 199.958 448.49 202.775 458.428 204.077L462.645 194.03C462.645 194.03 458.866 194.116 454.81 192.111Z" fill="#757374"/>
<path d="M499.823 261.132L506.345 257.428L504.945 245.629C503.084 245.306 501.35 245.029 499.823 244.805C495.652 253.527 487.119 273.652 486.566 293.736C486.497 296.15 486.566 298.483 486.687 300.764L503.084 273.732L499.823 261.132Z" fill="#CF3525"/>
<path d="M423.941 254.334C425.45 252.657 428.319 251.205 431.793 249.961L434.795 326.103L412.28 326.114C412.28 326.114 413.04 266.312 423.941 254.334Z" fill="white"/>
<path d="M454.476 261.132L447.965 257.428L449.366 245.629C451.227 245.306 452.961 245.029 454.476 244.805C458.664 253.527 467.185 273.652 467.744 293.736C467.813 296.15 467.744 298.483 467.623 300.764L451.221 273.732L454.476 261.132Z" fill="#CF3525"/>
<path d="M449.366 245.628L447.966 257.427L454.476 261.132L451.221 273.732L467.623 300.764C467.099 310.789 464.967 359.967 462.692 366.57L436.19 376.284L431.794 249.961C437.071 248.048 443.777 246.619 449.366 245.628Z" fill="#E54C3C"/>
<path d="M504.951 245.628L506.356 257.427L499.829 261.132L503.095 273.732L486.687 300.764C487.223 310.789 489.349 359.967 491.619 366.57L518.127 376.284L522.523 249.961C517.251 248.048 510.545 246.619 504.951 245.628Z" fill="#E54C3C"/>
<path d="M523.168 390.831H536.563L542.037 326.103H520.841L523.168 390.831Z" fill="#FFD8B4"/>
<path d="M532.444 404.917C528.555 405.839 524.309 401.927 522.949 396.189C521.584 390.445 523.629 385.041 527.512 384.124C531.401 383.197 535.647 387.109 537.013 392.853C538.372 398.597 536.333 403.995 532.444 404.917Z" fill="#FFD8B4"/>
<path d="M429.961 390.831H416.578L412.28 326.114L433.355 326.103L429.961 390.831Z" fill="#FFD8B4"/>
<path d="M420.686 404.917C424.574 405.839 428.826 401.927 430.192 396.189C431.551 390.445 429.5 385.041 425.617 384.124C421.734 383.197 417.482 387.109 416.123 392.853C414.763 398.597 416.808 403.995 420.686 404.917Z" fill="#FFD8B4"/>
<path d="M485.287 368.218H469.461V358.475H485.287V368.218Z" fill="#CECCCF"/>
<path d="M277.748 400.706L202.768 298.143L283.283 396.421L277.748 400.706Z" fill="#231F20"/>
<path d="M179.923 367.124L228.438 328.914L202.515 296L154 334.21L179.923 367.124Z" fill="#E54C3C"/>
<path d="M199.757 318.927L191.995 325.041L185.883 317.281L178.591 323.024L184.703 330.784L176.94 336.898L182.684 344.19L190.446 338.076L196.558 345.837L203.85 340.093L197.738 332.333L205.5 326.219L199.757 318.927Z" fill="white"/>
<path d="M176.36 357.505L158.424 334.733L186.806 312.379C185.603 314.59 184.496 316.851 183.494 319.162L178.591 323.024L180.882 325.933C179.772 329.209 178.859 332.554 178.146 335.948L176.94 336.898L177.755 337.931C176.557 344.355 176.081 350.929 176.36 357.505Z" fill="#EA7063"/>
<defs>
<filter id="filter0_d_31_1339" x="0" y="362" width="808" height="523.469" filterUnits="userSpaceOnUse" color-interpolation-filters="sRGB">
<feFlood flood-opacity="0" result="BackgroundImageFix"/>
<feColorMatrix in="SourceAlpha" type="matrix" values="0 0 0 0 0 0 0 0 0 0 0 0 0 0 0 0 0 0 127 0" result="hardAlpha"/>
<feOffset dy="4"/>
<feGaussianBlur stdDeviation="2"/>
<feComposite in2="hardAlpha" operator="out"/>
<feColorMatrix type="matrix" values="0 0 0 0 0 0 0 0 0 0 0 0 0 0 0 0 0 0 0.25 0"/>
<feBlend mode="normal" in2="BackgroundImageFix" result="effect1_dropShadow_31_1339"/>
<feBlend mode="normal" in="SourceGraphic" in2="effect1_dropShadow_31_1339" result="shape"/>
</filter>
</defs>
</svg>
