<svg width="1440" height="651" viewBox="0 0 1440 651" fill="none" xmlns="http://www.w3.org/2000/svg">
<path d="M1 650H1440V2.67029e-05H1V650Z" fill="#EAFFFC"/>
<path d="M259.114 425.649C259.114 425.649 450.254 310.735 498.589 311.511C546.924 312.286 575.717 272.517 588.5 266.835C601.28 261.154 684.306 298.083 684.306 298.083C684.306 298.083 885.384 443.227 906.356 457.621C927.324 472.014 1090.47 505.506 1090.47 505.506C1090.47 505.506 1177.17 439.579 1208.96 429.907C1240.76 420.232 1339.5 451.703 1362.07 471.477C1384.64 491.248 1439 516.485 1439 516.485V573.708L249.988 494.024L259.114 425.649Z" fill="#94E2F9"/>
<path d="M1418.69 514.076C1418.69 514.076 1284.26 385.291 1246.59 382.38C1208.92 379.468 1191.44 337.744 1182.2 331.125C1172.97 324.504 1103.86 354.885 1103.86 354.885C1103.86 354.885 929.62 483.837 911.539 496.546C893.458 509.252 762.483 530.114 762.483 530.114C762.483 530.114 703.216 457.981 679.69 445.945C656.163 433.904 575.509 457.666 555.525 475.599C535.539 493.532 490.164 514.474 490.164 514.474L483.101 571.355L1417.35 582.732L1418.69 514.076Z" fill="#94E2F9"/>
<path d="M0.171631 476.045C0.171631 476.045 163.501 377.255 211.33 388.803C259.16 400.347 419.358 470.963 430.827 470.963C442.293 470.963 700.402 477.889 719.583 476.045C738.771 474.205 899.225 408.778 934.102 411.664C968.983 414.55 1275.93 556.72 1439 559.493V573.708H0.171631V476.045Z" fill="#BFD8F7"/>
<path d="M0.106812 650.92H1438.94V574.302H0.106812V650.92Z" fill="#748F38"/>
<path d="M0.106812 629.791H1439V589.468H0.106812V629.791Z" fill="#637A30"/>
<path d="M0.171631 650.326H1439V573.708H0.171631V650.326Z" fill="#748F38"/>
<path d="M0.106812 629.791H1439V589.468H0.106812V629.791Z" fill="#637A30"/>
<path d="M810.612 475.061H923.32V313.834H810.612V475.061Z" fill="#71310B"/>
<path d="M845.282 353.315L840.041 348.605V326.425L845.282 321.724V353.315Z" fill="#561E07"/>
<path d="M820.649 353.315L825.893 348.605V326.425L820.649 321.724V353.315Z" fill="#944C2E"/>
<path d="M825.893 348.659H840.042V326.379H825.893V348.659Z" fill="#7D3417"/>
<path d="M840.189 326.377H825.746L820.649 321.724H845.282L840.189 326.377Z" fill="#A8522D"/>
<path d="M840.189 348.659H825.746L820.649 353.315H845.282L840.189 348.659Z" fill="#73381F"/>
<path d="M880.76 353.315L875.523 348.605V326.425L880.76 321.724V353.315Z" fill="#561E07"/>
<path d="M856.131 353.315L861.368 348.605V326.425L856.131 321.724V353.315Z" fill="#944C2E"/>
<path d="M861.368 348.659H875.523V326.379H861.368V348.659Z" fill="#7D3417"/>
<path d="M875.67 326.377H861.221L856.131 321.724H880.76L875.67 326.377Z" fill="#A8522D"/>
<path d="M875.67 348.659H861.221L856.131 353.315H880.76L875.67 348.659Z" fill="#73381F"/>
<path d="M916.238 353.315L910.998 348.605V326.425L916.238 321.724V353.315Z" fill="#561E07"/>
<path d="M891.606 353.315L896.849 348.605V326.425L891.606 321.724V353.315Z" fill="#944C2E"/>
<path d="M896.849 348.659H910.998V326.379H896.849V348.659Z" fill="#7D3417"/>
<path d="M911.148 326.377H896.709L891.606 321.724H916.238L911.148 326.377Z" fill="#A8522D"/>
<path d="M911.148 348.659H896.709L891.606 353.315H916.238L911.148 348.659Z" fill="#73381F"/>
<path d="M845.282 390.865L840.041 386.158V363.979L845.282 359.269V390.865Z" fill="#561E07"/>
<path d="M820.649 390.865L825.893 386.158V363.979L820.649 359.269V390.865Z" fill="#944C2E"/>
<path d="M825.893 386.208H840.042V363.927H825.893V386.208Z" fill="#7D3417"/>
<path d="M840.189 363.928H825.746L820.649 359.27H845.282L840.189 363.928Z" fill="#A8522D"/>
<path d="M840.189 386.207H825.746L820.649 390.865H845.282L840.189 386.207Z" fill="#73381F"/>
<path d="M810.612 412.103V313.833H923.32V335.161C920.942 335.689 918.579 336.26 916.238 336.874V321.724H891.606V345.168C887.922 346.699 884.309 348.336 880.76 350.083V321.724H856.131V353.315H874.496C864.018 358.974 854.231 365.567 845.282 372.959V359.269H820.649V390.866H826.647C820.687 397.539 815.316 404.641 810.612 412.103ZM820.649 353.315H845.282V321.724H820.649V353.315ZM840.099 348.659H825.835L825.893 348.606V326.426L825.838 326.377H825.893V348.659H840.041V348.606L840.099 348.659ZM840.041 326.426V326.377H840.096L840.041 326.426Z" fill="#7F4624"/>
<path d="M845.282 353.315L840.189 348.659H840.099L840.041 348.605V326.425L840.096 326.377H840.189L845.282 321.724V353.315Z" fill="#673520"/>
<path d="M820.649 353.315V321.724L825.746 326.377H825.839L825.893 326.425V348.605L825.835 348.659H825.746L820.649 353.315Z" fill="#9F5E43"/>
<path d="M875.58 348.659H861.31L861.368 348.605V326.425L861.314 326.377H861.368V348.659H875.523V348.605L875.58 348.659ZM896.849 343.083V326.425L896.795 326.377H896.849V343.083ZM910.998 326.425V326.377H911.052L910.998 326.425ZM875.523 326.425V326.377H875.577L875.523 326.425Z" fill="#7F4624"/>
<path d="M840.042 348.659H825.893V326.377H840.042V326.425V348.605V348.659Z" fill="#8A492F"/>
<path d="M840.189 326.377H825.746L820.649 321.724H845.282L840.189 326.377Z" fill="#B16442"/>
<path d="M845.282 353.315H820.649L825.746 348.659H840.189L845.282 353.315Z" fill="#814C36"/>
<path d="M878.477 351.227L875.67 348.659H875.58L875.523 348.605V326.425L875.577 326.377H875.67L880.76 321.724V350.082C879.996 350.457 879.235 350.841 878.477 351.227Z" fill="#673520"/>
<path d="M856.131 353.315V321.724L861.221 326.377H861.314L861.368 326.425V348.605L861.311 348.659H861.221L856.131 353.315Z" fill="#9F5E43"/>
<path d="M875.523 348.659H861.368V326.377H875.523V326.425V348.605V348.659Z" fill="#8A492F"/>
<path d="M875.67 326.377H861.221L856.131 321.724H880.76L875.67 326.377Z" fill="#B16442"/>
<path d="M874.497 353.315H856.131L861.221 348.659H875.67L878.477 351.227C877.141 351.906 875.811 352.602 874.497 353.315Z" fill="#814C36"/>
<path d="M910.998 338.328V326.425L911.052 326.377H911.148L916.238 321.724V336.873C914.48 337.333 912.737 337.819 910.998 338.328Z" fill="#673520"/>
<path d="M891.606 345.168V321.724L896.709 326.377H896.795L896.849 326.426V343.083C895.088 343.754 893.342 344.45 891.606 345.168Z" fill="#9F5E43"/>
<path d="M896.849 343.083V326.377H910.998V338.328C906.195 339.734 901.473 341.325 896.849 343.083Z" fill="#8A492F"/>
<path d="M911.148 326.377H896.709L891.606 321.724H916.238L911.148 326.377Z" fill="#B16442"/>
<path d="M830.97 386.208H825.842L825.893 386.159V363.98L825.835 363.928H825.893V386.208H830.97ZM840.041 363.98V363.928H840.099L840.041 363.98Z" fill="#7F4624"/>
<path d="M840.041 377.466V363.979L840.099 363.928H840.189L845.282 359.269V372.958C843.504 374.43 841.752 375.935 840.041 377.466Z" fill="#673520"/>
<path d="M820.649 390.865V359.269L825.746 363.927H825.835L825.893 363.979V386.158L825.842 386.207H825.746L820.649 390.865Z" fill="#9F5E43"/>
<path d="M830.971 386.208H825.893V363.928H840.042V363.98V377.467C836.898 380.279 833.871 383.197 830.971 386.208Z" fill="#8A492F"/>
<path d="M840.189 363.928H825.746L820.649 359.27H845.282L840.189 363.928Z" fill="#B16442"/>
<path d="M826.648 390.865H820.649L825.746 386.207H830.97C829.493 387.738 828.058 389.286 826.648 390.865Z" fill="#814C36"/>
<path d="M880.76 390.865L875.523 386.158V363.979L880.76 359.269V390.865Z" fill="#561E07"/>
<path d="M856.131 390.865L861.368 386.158V363.979L856.131 359.269V390.865Z" fill="#944C2E"/>
<path d="M861.368 386.208V363.928H875.523V386.208H861.368Z" fill="#7D3417"/>
<path d="M875.67 363.928H861.221L856.131 359.27H880.76L875.67 363.928Z" fill="#A8522D"/>
<path d="M875.67 386.207H861.221L856.131 390.865H880.76L875.67 386.207Z" fill="#73381F"/>
<path d="M916.238 390.865L910.998 386.158V363.979L916.238 359.269V390.865Z" fill="#561E07"/>
<path d="M891.606 390.865L896.849 386.158V363.979L891.606 359.269V390.865Z" fill="#944C2E"/>
<path d="M896.849 386.208V363.928H910.998V386.208H896.849Z" fill="#7D3417"/>
<path d="M911.148 363.928H896.709L891.606 359.27H916.238L911.148 363.928Z" fill="#A8522D"/>
<path d="M911.148 386.207H896.709L891.606 390.865H916.238L911.148 386.207Z" fill="#73381F"/>
<path d="M845.282 428.411L840.041 423.707V401.524L845.282 396.82V428.411Z" fill="#561E07"/>
<path d="M820.649 428.411L825.893 423.707V401.524L820.649 396.82V428.411Z" fill="#944C2E"/>
<path d="M825.893 423.755V401.476H840.042V423.755H825.893Z" fill="#7D3417"/>
<path d="M840.189 401.476H825.746L820.649 396.82H845.282L840.189 401.476Z" fill="#A8522D"/>
<path d="M840.189 423.755H825.746L820.649 428.411H845.282L840.189 423.755Z" fill="#73381F"/>
<path d="M880.76 428.411L875.523 423.707V401.524L880.76 396.82V428.411Z" fill="#561E07"/>
<path d="M856.131 428.411L861.368 423.707V401.524L856.131 396.82V428.411Z" fill="#944C2E"/>
<path d="M861.368 423.755V401.476H875.523V423.755H861.368Z" fill="#7D3417"/>
<path d="M875.67 401.476H861.221L856.131 396.82H880.76L875.67 401.476Z" fill="#A8522D"/>
<path d="M875.67 423.755H861.221L856.131 428.411H880.76L875.67 423.755Z" fill="#73381F"/>
<path d="M916.238 428.411L910.998 423.707V401.524L916.238 396.82V428.411Z" fill="#561E07"/>
<path d="M891.606 428.411L896.849 423.707V401.524L891.606 396.82V428.411Z" fill="#944C2E"/>
<path d="M896.849 423.755V401.476H910.998V423.755H896.849Z" fill="#7D3417"/>
<path d="M911.148 401.476H896.709L891.606 396.82H916.238L911.148 401.476Z" fill="#A8522D"/>
<path d="M911.148 423.755H896.709L891.606 428.411H916.238L911.148 423.755Z" fill="#73381F"/>
<path d="M845.282 465.959L840.041 461.258V439.081L845.282 434.368V465.959Z" fill="#561E07"/>
<path d="M820.649 465.959L825.893 461.258V439.081L820.649 434.368V465.959Z" fill="#944C2E"/>
<path d="M825.893 461.306V439.024H840.042V461.306H825.893Z" fill="#7D3417"/>
<path d="M840.189 439.024H825.746L820.649 434.368H845.282L840.189 439.024Z" fill="#A8522D"/>
<path d="M840.189 461.306H825.746L820.649 465.959H845.282L840.189 461.306Z" fill="#73381F"/>
<path d="M880.76 465.959L875.523 461.258V439.081L880.76 434.368V465.959Z" fill="#561E07"/>
<path d="M856.131 465.959L861.368 461.258V439.081L856.131 434.368V465.959Z" fill="#944C2E"/>
<path d="M861.368 461.306V439.024H875.523V461.306H861.368Z" fill="#7D3417"/>
<path d="M875.67 439.024H861.221L856.131 434.368H880.76L875.67 439.024Z" fill="#A8522D"/>
<path d="M875.67 461.306H861.221L856.131 465.959H880.76L875.67 461.306Z" fill="#73381F"/>
<path d="M916.238 465.959L910.998 461.258V439.081L916.238 434.368V465.959Z" fill="#561E07"/>
<path d="M891.606 465.959L896.849 461.258V439.081L891.606 434.368V465.959Z" fill="#944C2E"/>
<path d="M896.849 461.306V439.024H910.998V461.306H896.849Z" fill="#7D3417"/>
<path d="M911.148 439.024H896.709L891.606 434.368H916.238L911.148 439.024Z" fill="#A8522D"/>
<path d="M911.148 461.306H896.709L891.606 465.959H916.238L911.148 461.306Z" fill="#73381F"/>
<path d="M1129.61 404.776C1106.22 401.944 1092.22 387.303 1087.64 370.29C1086.69 368.651 1085.84 366.984 1085.1 365.262C1081.25 365.981 1077.24 366.231 1073.15 365.921C1063.92 365.208 1055.86 363.618 1047.22 361.354L1046.94 361.291C1045.15 361.291 1043.38 361.413 1041.58 361.524C1039.33 362.067 1029.53 363.632 1028.1 363.91C1023.5 364.794 1018.93 365.637 1014.3 366.379C1006.03 367.72 997.797 367.572 990.002 366.271C974.517 377.753 957.433 384.281 941.098 394.206C938.719 400.362 936.327 406.424 933.165 412.435C916.986 443.185 887.801 464.66 862.375 489.07C860.7 490.687 858.983 492.118 857.23 493.445L919.64 610.498H1269.95L1129.61 404.776Z" fill="#809E3E"/>
<path d="M839.204 460.624L859.903 499.456L878.154 503.714L987.713 358.84L839.204 460.624Z" fill="#9FC149"/>
<path d="M1043.45 309.779L981.961 362.803L960.087 395.38L1014.26 375.737L1054.58 410.617L1056.32 408.49L1046.32 313.85L1043.45 309.779Z" fill="#F2F2F2"/>
<path d="M1126.97 400.89L1108.32 376.96L1084.92 372.66L1160.99 521.565L1191.06 610.498H1269.95L1126.97 400.89Z" fill="#748F38"/>
<path d="M770.677 529.97L774.457 474.804L791.416 429.589L778.712 434.379L640.819 611.48H746.991L781.507 551.113L770.677 529.97Z" fill="#545454"/>
<path d="M1037.6 611.48L935.528 520.818L866.014 486.036L848.553 452.803C844.073 451.485 840.077 449.647 836.476 447.443C817.276 447.372 803.425 439.955 794.913 429.285L791.416 429.589L774.457 474.804L770.677 529.97L781.507 551.113L746.991 611.48H1037.6Z" fill="#333333"/>
<path d="M1143.4 542.16L1108.32 535.845L1051.35 515.534L971.867 552.11L1017.38 610.498H1252.12L1143.4 542.16Z" fill="#9FC149"/>
<path d="M885.077 567.015H839.204L762.348 581.301L743.247 551.113L655.031 595.377L640.819 611.48H896.047L885.077 567.015Z" fill="#9FC148"/>
<path d="M947.24 581.301L979.563 564.95L994.494 533.143L912.699 567.015L839.204 611.48H949.437L953.414 595.635L947.24 581.301Z" fill="#A15D35"/>
<path d="M1080.49 567.015L1001.85 522.548L994.495 533.143L979.563 564.95L947.24 581.301L953.415 595.635L949.437 611.48H1130.55L1080.49 567.015Z" fill="#56321C"/>
<path d="M971.585 544.521L984.87 543.734L994.494 533.144L1009.77 551.114V539.743L1038.91 543.504L1001.85 522.548L964.957 545.981L971.585 544.521Z" fill="#E6E6E6"/>
<path d="M814.67 388.307L778.712 434.38C781.024 437.493 781.411 447.941 781.411 447.941C781.411 447.941 792.832 448.947 793.017 450.918C793.481 455.739 793.708 458.392 793.708 458.392L808.208 446.876L819.923 453.759L820.799 453.225L815.05 389.639L814.67 388.307Z" fill="#F2F2F2"/>
<path d="M815.051 389.638L820.799 453.224L830.542 447.279L844.15 460.624L849.183 453.923L815.051 389.638Z" fill="#E6E6E6"/>
<path d="M1108.32 377.943L1046.32 313.849L1056.32 408.489L1084.92 373.643L1108.32 377.943Z" fill="#E6E6E6"/>
<path d="M418.966 366.181L422.046 316.24L425.126 366.181H418.966Z" fill="#231F20"/>
<path d="M422.293 357.796L422.046 357.489L333.254 436.002H510.842L422.293 357.796Z" fill="#60341B"/>
<path d="M296.395 393.247L299.476 343.302L302.556 393.247H296.395Z" fill="#231F20"/>
<path d="M539.664 442.504L542.746 343.302L545.825 442.504H539.664Z" fill="#231F20"/>
<path d="M622.067 534.459V547.103H610.48V534.459H596.728V547.103H585.143V534.459H571.404V547.103H559.817V534.459H557.118V612.731H630.658V534.459H622.067Z" fill="#B08B59"/>
<path d="M217.891 534.459V547.103H229.476V534.459H243.224V547.103H254.81V534.459H268.554V547.103H280.14V534.459H282.838V612.731H209.3V534.459H217.891Z" fill="#B08B59"/>
<path d="M510.679 612.731H331.244V449.003H510.679V612.731Z" fill="#DBB876"/>
<path d="M420.961 539.734C407.464 539.734 396.521 545.614 396.521 552.864V612.731H445.403V552.864C445.403 545.614 434.461 539.734 420.961 539.734Z" fill="#60341B"/>
<path d="M365.557 498.039C356.77 498.039 349.634 501.865 349.634 506.578V523.136H381.481V506.578C381.481 501.865 374.355 498.039 365.557 498.039Z" fill="#60341B"/>
<path d="M420.961 498.039C412.174 498.039 405.039 501.865 405.039 506.578V523.136H436.885V506.578C436.885 501.865 429.759 498.039 420.961 498.039Z" fill="#60341B"/>
<path d="M476.366 498.039C485.161 498.039 492.291 501.865 492.291 506.578V523.136H460.444V506.578C460.444 501.865 467.572 498.039 476.366 498.039Z" fill="#60341B"/>
<path d="M386.011 481.158H370.093V460.969H386.011V481.158Z" fill="#6B371F"/>
<path d="M414.43 481.158H398.519V460.969H414.43V481.158Z" fill="#6B371F"/>
<path d="M442.853 481.158H426.942V460.969H442.853V481.158Z" fill="#6B371F"/>
<path d="M471.278 481.158H455.359V460.969H471.278V481.158Z" fill="#6B371F"/>
<path d="M333.254 436.005L322.89 449.003H521.208L510.842 436.005H333.254Z" fill="#60341B"/>
<path d="M574.758 612.731H510.74V481.481H574.758V612.731Z" fill="#CAA066"/>
<path d="M542.746 581.807C537.029 581.807 532.396 584.299 532.396 587.364V612.731H553.105V587.364C553.105 584.299 548.472 581.807 542.746 581.807Z" fill="#60341B"/>
<path d="M525.179 502.559C521.448 502.559 518.43 504.181 518.43 506.189V513.194H531.929V506.189C531.929 504.181 528.895 502.559 525.179 502.559Z" fill="#60341B"/>
<path d="M542.746 502.559C539.024 502.559 536.006 504.181 536.006 506.189V513.194H549.493V506.189C549.493 504.181 546.471 502.559 542.746 502.559Z" fill="#60341B"/>
<path d="M560.322 502.559C564.053 502.559 567.072 504.181 567.072 506.189V513.194H553.585V506.189C553.585 504.181 556.591 502.559 560.322 502.559Z" fill="#60341B"/>
<path d="M525.179 529.144C521.448 529.144 518.43 530.766 518.43 532.766V539.777H531.929V532.766C531.929 530.766 528.895 529.144 525.179 529.144Z" fill="#60341B"/>
<path d="M542.746 529.144C539.024 529.144 536.006 530.766 536.006 532.766V539.777H549.493V532.766C549.493 530.766 546.471 529.144 542.746 529.144Z" fill="#60341B"/>
<path d="M560.322 529.144C564.053 529.144 567.072 530.766 567.072 532.766V539.777H553.585V532.766C553.585 530.766 556.591 529.144 560.322 529.144Z" fill="#60341B"/>
<path d="M525.179 555.728C521.448 555.728 518.43 557.35 518.43 559.35V566.363H531.929V559.35C531.929 557.35 528.895 555.728 525.179 555.728Z" fill="#60341B"/>
<path d="M542.746 555.728C539.024 555.728 536.006 557.35 536.006 559.35V566.363H549.493V559.35C549.493 557.35 546.471 555.728 542.746 555.728Z" fill="#60341B"/>
<path d="M560.322 555.728C564.053 555.728 567.072 557.35 567.072 559.35V566.363H553.585V559.35C553.585 557.35 556.591 555.728 560.322 555.728Z" fill="#60341B"/>
<path d="M542.839 379.549L510.919 475.973H574.758L542.839 379.549Z" fill="#60341B"/>
<path d="M510.919 475.973L507.191 481.481H578.49L574.758 475.973H510.919Z" fill="#6B371F"/>
<path d="M331.395 612.731H267.376V481.481H331.395V612.731Z" fill="#CAA066"/>
<path d="M299.38 581.807C293.665 581.807 289.032 584.299 289.032 587.364V612.731H309.74V587.364C309.74 584.299 305.106 581.807 299.38 581.807Z" fill="#60341B"/>
<path d="M281.801 502.559C278.084 502.559 275.065 504.181 275.065 506.189V513.194H288.55V506.189C288.55 504.181 285.531 502.559 281.801 502.559Z" fill="#60341B"/>
<path d="M299.38 502.559C295.663 502.559 292.641 504.181 292.641 506.189V513.194H306.128V506.189C306.128 504.181 303.108 502.559 299.38 502.559Z" fill="#60341B"/>
<path d="M316.957 502.559C320.688 502.559 323.706 504.181 323.706 506.189V513.194H310.214V506.189C310.214 504.181 313.228 502.559 316.957 502.559Z" fill="#60341B"/>
<path d="M281.801 529.144C278.084 529.144 275.065 530.766 275.065 532.766V539.777H288.55V532.766C288.55 530.766 285.531 529.144 281.801 529.144Z" fill="#60341B"/>
<path d="M299.38 529.144C295.663 529.144 292.641 530.766 292.641 532.766V539.777H306.128V532.766C306.128 530.766 303.108 529.144 299.38 529.144Z" fill="#60341B"/>
<path d="M316.957 529.144C320.688 529.144 323.706 530.766 323.706 532.766V539.777H310.214V532.766C310.214 530.766 313.228 529.144 316.957 529.144Z" fill="#60341B"/>
<path d="M281.801 555.728C278.084 555.728 275.065 557.35 275.065 559.35V566.363H288.55V559.35C288.55 557.35 285.531 555.728 281.801 555.728Z" fill="#60341B"/>
<path d="M299.38 555.728C295.663 555.728 292.641 557.35 292.641 559.35V566.363H306.128V559.35C306.128 557.35 303.108 555.728 299.38 555.728Z" fill="#60341B"/>
<path d="M316.957 555.728C320.688 555.728 323.706 557.35 323.706 559.35V566.363H310.214V559.35C310.214 557.35 313.228 555.728 316.957 555.728Z" fill="#60341B"/>
<path d="M299.476 379.549L267.559 475.973H331.395L299.476 379.549Z" fill="#60341B"/>
<path d="M267.559 475.973L263.828 481.481H335.125L331.395 475.973H267.559Z" fill="#6B371F"/>
<path d="M349.634 428.804L419.739 366.181L409.213 405.187L349.634 428.804Z" fill="#805D49"/>
<path d="M422.049 333.516H479.377V298.962H422.049V333.516Z" fill="#E54C3C"/>
<path d="M464.197 312.41H455.024V304.263H446.407V312.41H437.235V320.066H446.407V328.213H455.024V320.066H464.197V312.41Z" fill="white"/>
<path d="M424.975 325.466V301.559H458.513C456.366 302.377 454.26 303.278 452.201 304.263H446.407V307.317C443.716 308.874 441.129 310.575 438.66 312.41H437.235V313.495C432.672 317.046 428.548 321.063 424.975 325.466Z" fill="#EA7063"/>
<path d="M437.235 313.495V312.41H438.66C438.182 312.765 437.705 313.129 437.235 313.495ZM446.407 307.317V304.263H452.201C450.224 305.206 448.29 306.226 446.407 307.317Z" fill="white"/>
</svg>
