<svg width="177" height="50" viewBox="0 0 177 50" fill="none" xmlns="http://www.w3.org/2000/svg">
<g clip-path="url(#clip0_27_203)">
<g clip-path="url(#clip1_27_203)">
<g clip-path="url(#clip2_27_203)">
<g clip-path="url(#clip3_27_203)">
<g clip-path="url(#clip4_27_203)">
<g clip-path="url(#clip5_27_203)">
<g clip-path="url(#clip6_27_203)">
<path d="M68.9381 29.0863C68.9381 29.8007 68.8468 30.4302 68.6642 30.9748C68.4848 31.5224 68.2314 31.9946 67.9041 32.3911C67.5799 32.7909 67.1943 33.1261 66.7474 33.3968C66.3004 33.6643 65.8142 33.8799 65.2885 34.0436C64.7629 34.2041 64.2058 34.319 63.6172 34.3882C63.0286 34.4575 62.4306 34.4921 61.8231 34.4921C61.0268 34.4921 60.2903 34.4323 59.6135 34.3127C58.9368 34.1931 58.301 34.0042 57.7062 33.7462C57.1081 33.4912 56.5353 33.1591 55.9876 32.75C55.4368 32.3439 54.8891 31.8482 54.3446 31.2628L56.6958 28.8785C56.9098 29.4073 57.2057 29.8967 57.5834 30.3468C57.9611 30.7969 58.3734 31.1825 58.8204 31.5035C59.2705 31.8277 59.7379 32.0827 60.2226 32.2684C60.7073 32.4509 61.1653 32.5422 61.5965 32.5422C62.1032 32.5422 62.5785 32.506 63.0223 32.4336C63.4693 32.3612 63.858 32.2401 64.1885 32.0701C64.5189 31.9001 64.7786 31.6751 64.9675 31.395C65.1563 31.1148 65.2507 30.7639 65.2507 30.3421C65.2507 30.0179 65.1768 29.7409 65.0288 29.5112C64.8841 29.2814 64.6936 29.0831 64.4576 28.9163C64.2247 28.7526 63.9587 28.6126 63.6597 28.4961C63.3575 28.3828 63.0522 28.2852 62.7438 28.2034C62.4321 28.1215 62.1253 28.0491 61.8231 27.9862C61.5241 27.9201 61.2597 27.8524 61.0299 27.7832C60.5767 27.651 60.1046 27.5109 59.6135 27.363C59.1194 27.2119 58.6347 27.0404 58.1594 26.8484C57.6841 26.6564 57.2325 26.436 56.8044 26.1874C56.3795 25.9356 56.0049 25.6397 55.6807 25.2998C55.3597 24.9567 55.1032 24.5601 54.9112 24.11C54.7192 23.6599 54.6232 23.1437 54.6232 22.5615C54.6232 21.8627 54.7097 21.2426 54.8828 20.7013C55.0528 20.1599 55.2967 19.6893 55.6146 19.2896C55.9294 18.8899 56.3008 18.5531 56.7288 18.2793C57.1601 18.0054 57.6338 17.7867 58.15 17.623C58.663 17.4562 59.2107 17.3366 59.793 17.2642C60.3721 17.1918 60.9654 17.1556 61.5729 17.1556C62.4007 17.1556 63.1545 17.2327 63.8344 17.3869C64.5174 17.5412 65.1469 17.7599 65.7229 18.0432C66.2989 18.3265 66.8261 18.6664 67.3045 19.063C67.7861 19.4596 68.2377 19.9002 68.6595 20.3849L66.3083 22.7692C66.1258 22.2152 65.8708 21.7163 65.5435 21.2725C65.2161 20.8256 64.8526 20.4432 64.4529 20.1253C64.0531 19.8042 63.6345 19.5572 63.197 19.384C62.7595 19.2109 62.3361 19.1244 61.927 19.1244C61.3982 19.1244 60.9103 19.1621 60.4634 19.2377C60.0196 19.3101 59.6372 19.4281 59.3161 19.5918C58.9982 19.7586 58.7511 19.9821 58.5749 20.2622C58.3986 20.5423 58.3105 20.8901 58.3105 21.3056C58.3105 21.6361 58.375 21.9162 58.504 22.146C58.6362 22.3758 58.8109 22.5725 59.0281 22.7361C59.2484 22.8967 59.4971 23.0289 59.7741 23.1327C60.0511 23.2366 60.3375 23.3263 60.6333 23.4018C60.9292 23.4805 61.2204 23.5482 61.5068 23.6049C61.7963 23.6615 62.0607 23.7245 62.3 23.7937C62.7595 23.9259 63.2426 24.0644 63.7494 24.2092C64.2561 24.354 64.7566 24.5255 65.2507 24.7238C65.7418 24.9189 66.2092 25.144 66.653 25.3989C67.0999 25.6507 67.4918 25.9513 67.8286 26.3007C68.1685 26.6501 68.4376 27.0545 68.6359 27.5141C68.8373 27.9705 68.9381 28.4945 68.9381 29.0863ZM79.5751 26.0646L77.375 34.1569H73.8671L70.227 20.8429H74.122L76.4071 30.1816L78.3051 20.8429H81.813L84.1406 30.4318L86.3879 20.8429H89.0837L85.0518 34.1569H81.5439L79.5751 26.0646ZM95.16 17.6277C95.16 17.9204 95.1034 18.1974 94.9901 18.4587C94.8799 18.7199 94.7288 18.9465 94.5368 19.1385C94.3448 19.3305 94.1182 19.4816 93.8569 19.5918C93.5957 19.7051 93.3187 19.7617 93.026 19.7617C92.7333 19.7617 92.4579 19.7051 92.1998 19.5918C91.9448 19.4816 91.7198 19.3305 91.5246 19.1385C91.3326 18.9465 91.1816 18.7199 91.0714 18.4587C90.9612 18.1974 90.9061 17.9204 90.9061 17.6277C90.9061 17.335 90.9612 17.0596 91.0714 16.8015C91.1816 16.5466 91.3326 16.3231 91.5246 16.1311C91.7198 15.9391 91.9448 15.7864 92.1998 15.6731C92.4579 15.563 92.7333 15.5079 93.026 15.5079C93.3187 15.5079 93.5957 15.563 93.8569 15.6731C94.1182 15.7864 94.3448 15.9391 94.5368 16.1311C94.7288 16.3231 94.8799 16.5466 94.9901 16.8015C95.1034 17.0596 95.16 17.335 95.16 17.6277ZM94.9853 20.8571V34.1569H91.0761V20.8571H94.9853ZM109.702 29.903C109.702 30.4885 109.618 31.0078 109.451 31.4611C109.281 31.9143 109.05 32.3077 108.757 32.6414C108.465 32.975 108.118 33.2551 107.719 33.4818C107.319 33.7084 106.891 33.8909 106.434 34.0294C105.978 34.1679 105.5 34.2686 104.999 34.3316C104.502 34.3914 104.006 34.4213 103.512 34.4213C102.851 34.4213 102.267 34.3788 101.76 34.2938C101.254 34.2088 100.77 34.0735 100.311 33.8878C99.8482 33.6989 99.3887 33.455 98.9323 33.156C98.4759 32.8538 97.966 32.4887 97.4026 32.0607L99.6736 30.2052C99.8813 30.5955 100.157 30.9496 100.5 31.2675C100.84 31.5885 101.195 31.8639 101.567 32.0937C101.935 32.3235 102.292 32.4997 102.639 32.6225C102.985 32.7452 103.265 32.8066 103.479 32.8066C103.655 32.8066 103.855 32.8019 104.079 32.7925C104.302 32.7799 104.529 32.7563 104.758 32.7216C104.988 32.687 105.215 32.6351 105.438 32.5658C105.662 32.4966 105.86 32.4022 106.033 32.2826C106.206 32.163 106.345 32.0134 106.449 31.834C106.552 31.6546 106.604 31.4374 106.604 31.1825C106.604 30.9213 106.537 30.6931 106.401 30.4979C106.266 30.3028 106.091 30.1312 105.877 29.9833C105.66 29.8385 105.415 29.7158 105.141 29.615C104.864 29.5143 104.585 29.4262 104.305 29.3506C104.022 29.2751 103.75 29.2074 103.488 29.1476C103.227 29.091 103 29.0359 102.808 28.9824C102.456 28.8817 102.085 28.7794 101.694 28.6755C101.301 28.5716 100.912 28.452 100.528 28.3167C100.144 28.1845 99.7774 28.0255 99.428 27.8398C99.0787 27.6573 98.7702 27.437 98.5027 27.1789C98.2383 26.9208 98.0274 26.617 97.87 26.2677C97.7127 25.9183 97.634 25.5091 97.634 25.0401C97.634 24.1777 97.8055 23.4569 98.1486 22.8778C98.4885 22.2986 98.9402 21.8344 99.5036 21.485C100.064 21.1356 100.701 20.887 101.416 20.739C102.13 20.5943 102.856 20.5219 103.592 20.5219C104.102 20.5219 104.637 20.5738 105.197 20.6777C105.758 20.7815 106.302 20.9342 106.831 21.1356C107.363 21.3402 107.859 21.5889 108.318 21.8816C108.781 22.1743 109.165 22.5079 109.47 22.8825L107.204 24.7521C107.034 24.2894 106.812 23.8929 106.538 23.5624C106.264 23.2319 105.969 22.9612 105.651 22.7503C105.333 22.5394 105.007 22.3836 104.673 22.2829C104.337 22.1853 104.027 22.1365 103.743 22.1365C103.466 22.1365 103.155 22.1476 102.808 22.1696C102.462 22.1916 102.138 22.2561 101.836 22.3632C101.534 22.4733 101.276 22.637 101.062 22.8542C100.851 23.0745 100.745 23.3767 100.745 23.7607C100.745 24.0376 100.81 24.2737 100.939 24.4688C101.065 24.664 101.232 24.8324 101.439 24.974C101.647 25.1188 101.883 25.2384 102.147 25.3328C102.412 25.4304 102.683 25.5154 102.96 25.5878C103.237 25.6602 103.506 25.7231 103.767 25.7766C104.028 25.8301 104.263 25.8884 104.47 25.9513C104.823 26.0489 105.197 26.1496 105.594 26.2535C105.991 26.3574 106.381 26.477 106.765 26.6123C107.149 26.7477 107.519 26.905 107.874 27.0844C108.233 27.267 108.546 27.4889 108.814 27.7501C109.085 28.0114 109.3 28.3167 109.461 28.6661C109.621 29.0154 109.702 29.4278 109.702 29.903ZM123.615 29.903C123.615 30.4885 123.53 31.0078 123.36 31.4611C123.19 31.9143 122.96 32.3077 122.671 32.6414C122.378 32.975 122.032 33.2551 121.632 33.4818C121.232 33.7084 120.804 33.8909 120.348 34.0294C119.888 34.1679 119.41 34.2686 118.913 34.3316C118.412 34.3914 117.917 34.4213 117.426 34.4213C116.765 34.4213 116.181 34.3788 115.674 34.2938C115.167 34.2088 114.682 34.0735 114.22 33.8878C113.76 33.6989 113.301 33.455 112.841 33.156C112.385 32.8538 111.876 32.4887 111.316 32.0607L113.587 30.2052C113.795 30.5955 114.069 30.9496 114.409 31.2675C114.752 31.5885 115.107 31.8639 115.476 32.0937C115.844 32.3235 116.201 32.4997 116.547 32.6225C116.894 32.7452 117.174 32.8066 117.388 32.8066C117.567 32.8066 117.767 32.8019 117.987 32.7925C118.211 32.7799 118.437 32.7563 118.667 32.7216C118.9 32.687 119.128 32.6351 119.352 32.5658C119.572 32.4966 119.769 32.4022 119.942 32.2826C120.115 32.163 120.254 32.0134 120.357 31.834C120.461 31.6546 120.513 31.4374 120.513 31.1825C120.513 30.9213 120.446 30.6931 120.31 30.4979C120.178 30.3028 120.003 30.1312 119.786 29.9833C119.572 29.8385 119.327 29.7158 119.05 29.615C118.773 29.5143 118.494 29.4262 118.214 29.3506C117.934 29.2751 117.663 29.2074 117.402 29.1476C117.141 29.091 116.914 29.0359 116.722 28.9824C116.37 28.8817 115.997 28.7794 115.603 28.6755C115.213 28.5716 114.824 28.452 114.437 28.3167C114.053 28.1845 113.686 28.0255 113.337 27.8398C112.988 27.6573 112.681 27.437 112.416 27.1789C112.152 26.9208 111.941 26.617 111.784 26.2677C111.626 25.9183 111.548 25.5091 111.548 25.0401C111.548 24.1777 111.718 23.4569 112.057 22.8778C112.401 22.2986 112.852 21.8344 113.412 21.485C113.973 21.1356 114.61 20.887 115.325 20.739C116.042 20.5943 116.769 20.5219 117.506 20.5219C118.013 20.5219 118.546 20.5738 119.106 20.6777C119.667 20.7815 120.213 20.9342 120.745 21.1356C121.273 21.3402 121.769 21.5889 122.232 21.8816C122.691 22.1743 123.075 22.5079 123.384 22.8825L121.113 24.7521C120.943 24.2894 120.723 23.8929 120.452 23.5624C120.178 23.2319 119.882 22.9612 119.564 22.7503C119.243 22.5394 118.916 22.3836 118.582 22.2829C118.249 22.1853 117.94 22.1365 117.657 22.1365C117.38 22.1365 117.068 22.1476 116.722 22.1696C116.376 22.1916 116.052 22.2561 115.749 22.3632C115.444 22.4733 115.186 22.637 114.975 22.8542C114.764 23.0745 114.659 23.3767 114.659 23.7607C114.659 24.0376 114.722 24.2737 114.848 24.4688C114.974 24.664 115.14 24.8324 115.348 24.974C115.556 25.1188 115.792 25.2384 116.056 25.3328C116.324 25.4304 116.596 25.5154 116.873 25.5878C117.15 25.6602 117.419 25.7231 117.68 25.7766C117.942 25.8301 118.175 25.8884 118.379 25.9513C118.735 26.0489 119.109 26.1496 119.503 26.2535C119.899 26.3574 120.29 26.477 120.674 26.6123C121.058 26.7477 121.429 26.905 121.788 27.0844C122.144 27.267 122.457 27.4889 122.728 27.7501C122.995 28.0114 123.211 28.3167 123.374 28.6661C123.535 29.0154 123.615 29.4278 123.615 29.903ZM130.159 17.6277C130.159 17.9204 130.104 18.1974 129.994 18.4587C129.883 18.7199 129.731 18.9465 129.536 19.1385C129.344 19.3305 129.117 19.4816 128.856 19.5918C128.594 19.7051 128.319 19.7617 128.03 19.7617C127.737 19.7617 127.461 19.7051 127.203 19.5918C126.945 19.4816 126.72 19.3305 126.528 19.1385C126.336 18.9465 126.185 18.7199 126.075 18.4587C125.962 18.1974 125.905 17.9204 125.905 17.6277C125.905 17.335 125.962 17.0596 126.075 16.8015C126.185 16.5466 126.336 16.3231 126.528 16.1311C126.72 15.9391 126.945 15.7864 127.203 15.6731C127.461 15.563 127.737 15.5079 128.03 15.5079C128.319 15.5079 128.594 15.563 128.856 15.6731C129.117 15.7864 129.344 15.9391 129.536 16.1311C129.731 16.3231 129.883 16.5466 129.994 16.8015C130.104 17.0596 130.159 17.335 130.159 17.6277ZM129.989 20.8571V34.1569H126.08V20.8571H129.989ZM138.261 22.3868V34.1569H134.356V22.3868H131.934V20.8429H134.356V15.947H138.261V20.8429H142.297V22.3868H138.261ZM148.199 17.6277C148.199 17.9204 148.142 18.1974 148.029 18.4587C147.919 18.7199 147.768 18.9465 147.576 19.1385C147.384 19.3305 147.157 19.4816 146.896 19.5918C146.634 19.7051 146.357 19.7617 146.065 19.7617C145.772 19.7617 145.497 19.7051 145.239 19.5918C144.984 19.4816 144.76 19.3305 144.568 19.1385C144.376 18.9465 144.223 18.7199 144.11 18.4587C144 18.1974 143.945 17.9204 143.945 17.6277C143.945 17.335 144 17.0596 144.11 16.8015C144.223 16.5466 144.376 16.3231 144.568 16.1311C144.76 15.9391 144.984 15.7864 145.239 15.6731C145.497 15.563 145.772 15.5079 146.065 15.5079C146.357 15.5079 146.634 15.563 146.896 15.6731C147.157 15.7864 147.384 15.9391 147.576 16.1311C147.768 16.3231 147.919 16.5466 148.029 16.8015C148.142 17.0596 148.199 17.335 148.199 17.6277ZM148.024 20.8571V34.1569H144.115V20.8571H148.024ZM161.834 32.613V34.1569H150.559V32.613L157.533 22.3868H150.559V20.8429H161.834V22.3868L154.856 32.613H161.834ZM167.122 27.8398C167.597 27.9469 168.074 28.0318 168.552 28.0948C169.027 28.1546 169.507 28.1845 169.992 28.1845C170.499 28.1845 170.97 28.1373 171.404 28.0429C171.838 27.9453 172.214 27.7832 172.532 27.5566C172.85 27.3299 173.102 27.0294 173.288 26.6548C173.473 26.2771 173.566 25.8081 173.566 25.2479C173.566 24.7946 173.505 24.3791 173.382 24.0014C173.259 23.6237 173.077 23.3011 172.834 23.0336C172.592 22.766 172.293 22.5567 171.937 22.4057C171.585 22.2546 171.174 22.179 170.705 22.179C170.268 22.179 169.874 22.2609 169.525 22.4245C169.175 22.5851 168.869 22.8022 168.604 23.0761C168.337 23.3468 168.11 23.6631 167.924 24.0251C167.735 24.387 167.58 24.7631 167.457 25.1534C167.334 25.5469 167.246 25.9435 167.192 26.3432C167.136 26.7429 167.107 27.1191 167.107 27.4716C167.107 27.5345 167.107 27.5959 167.107 27.6557C167.107 27.7187 167.112 27.78 167.122 27.8398ZM176.725 25.2101C176.725 25.7578 176.635 26.244 176.456 26.669C176.279 27.097 176.04 27.4716 175.738 27.7926C175.433 28.1168 175.08 28.3907 174.68 28.6141C174.284 28.8345 173.857 29.017 173.401 29.1618C172.948 29.3034 172.482 29.4042 172.003 29.464C171.522 29.5269 171.054 29.5584 170.601 29.5584C170.025 29.5584 169.457 29.5175 168.897 29.4356C168.337 29.3569 167.783 29.2279 167.235 29.0485C167.32 29.5584 167.455 30.0415 167.641 30.4979C167.824 30.9543 168.069 31.354 168.378 31.6971C168.686 32.0371 169.064 32.3077 169.511 32.5092C169.961 32.7075 170.494 32.8066 171.111 32.8066C171.517 32.8066 171.904 32.7452 172.273 32.6225C172.641 32.4997 172.979 32.3266 173.288 32.1031C173.596 31.8828 173.867 31.6184 174.1 31.31C174.336 31.0015 174.526 30.66 174.671 30.2855L176.352 30.9087C176.1 31.513 175.754 32.0371 175.313 32.4809C174.869 32.9215 174.369 33.2866 173.812 33.5762C173.255 33.8626 172.663 34.0751 172.037 34.2136C171.41 34.352 170.79 34.4213 170.176 34.4213C169.163 34.4213 168.225 34.2513 167.362 33.9114C166.503 33.5683 165.762 33.0899 165.139 32.4761C164.516 31.8592 164.028 31.1243 163.675 30.2713C163.323 29.4183 163.146 28.4851 163.146 27.4716C163.146 26.4581 163.323 25.5248 163.675 24.6719C164.028 23.8189 164.516 23.0839 165.139 22.467C165.762 21.8533 166.503 21.3748 167.362 21.0318C168.225 20.6918 169.163 20.5219 170.176 20.5219C170.667 20.5219 171.171 20.5565 171.687 20.6257C172.2 20.695 172.699 20.8036 173.184 20.9515C173.668 21.1026 174.126 21.2977 174.558 21.5369C174.986 21.773 175.36 22.0657 175.681 22.4151C175.999 22.7676 176.253 23.1736 176.441 23.6332C176.63 24.0927 176.725 24.6184 176.725 25.2101Z" fill="white"/>
</g>
</g>
</g>
</g>
<g clip-path="url(#clip7_27_203)">
<g clip-path="url(#clip8_27_203)">
<path d="M25.008 41.8983C23.3351 41.8983 21.771 41.9365 20.3043 42.0021C20.7281 43.246 21.6263 44.272 22.8033 44.8564C23.4683 45.187 24.2148 45.3773 25.008 45.3773C25.8012 45.3773 26.5477 45.187 27.2127 44.8564C28.3903 44.2728 29.2889 43.2466 29.7117 42.0021C28.1448 41.9325 26.5765 41.8979 25.008 41.8983Z" fill="white"/>
<path d="M49.0865 41.5126H49.0875C38.791 28.066 46.5443 7.39947 29.4736 4.47707C29.3961 2.07851 27.4255 0.149628 25.008 0.149628C22.5906 0.149628 20.6199 2.07851 20.5424 4.47707C3.4717 7.39947 11.225 28.066 0.928512 41.5126H0.929506C0.435481 42.0682 0.157654 42.691 0.157654 43.3893C0.157654 49.669 22.4643 49.8504 25.008 49.8504C27.5517 49.8504 49.8584 49.669 49.8584 43.3893C49.8584 42.691 49.5806 42.0682 49.0865 41.5126ZM25.008 2.13766C26.2421 2.13766 27.261 3.0447 27.4528 4.22559C26.6805 4.16197 25.8703 4.12569 25.008 4.12569C24.1457 4.12569 23.3356 4.16197 22.5632 4.22559C22.7551 3.0447 23.774 2.13766 25.008 2.13766ZM25.008 46.8683C12.134 46.8683 4.33053 44.7053 3.20779 43.3893C4.33053 42.0732 12.1345 39.9102 25.008 39.9102C37.8815 39.9102 45.6855 42.0732 46.8083 43.3893C45.6855 44.7053 37.882 46.8683 25.008 46.8683Z" fill="white"/>
</g>
</g>
</g>
</g>
</g>
<defs>
<clipPath id="clip0_27_203">
<rect width="176.887" height="50" fill="white"/>
</clipPath>
<clipPath id="clip1_27_203">
<rect width="176.571" height="49.7007" fill="white" transform="translate(0.157654 0.149628)"/>
</clipPath>
<clipPath id="clip2_27_203">
<rect width="176.571" height="49.7007" fill="white" transform="translate(0.157654 0.149628)"/>
</clipPath>
<clipPath id="clip3_27_203">
<rect width="122.389" height="18.9842" fill="white" transform="translate(54.3401 15.5079)"/>
</clipPath>
<clipPath id="clip4_27_203">
<rect width="122.389" height="18.9842" fill="white" transform="translate(54.3401 15.5079)"/>
</clipPath>
<clipPath id="clip5_27_203">
<rect width="122.389" height="18.9842" fill="white" transform="translate(54.3401 15.5079)"/>
</clipPath>
<clipPath id="clip6_27_203">
<rect width="122.389" height="18.9842" fill="white" transform="translate(54.3401 15.5079)"/>
</clipPath>
<clipPath id="clip7_27_203">
<rect width="49.7007" height="49.7007" fill="white" transform="translate(0.157654 0.149628)"/>
</clipPath>
<clipPath id="clip8_27_203">
<rect width="49.7007" height="49.7007" fill="white" transform="translate(0.157654 0.149628)"/>
</clipPath>
</defs>
</svg>
