<svg width="1440" height="302" viewBox="0 0 1440 302" fill="none" xmlns="http://www.w3.org/2000/svg">
<path d="M-1 54.764C-1 54.764 56.3333 54.764 183.445 54.764C310.555 54.764 386.111 68.0973 416.333 76.9866C446.556 85.876 620.777 117.876 665.667 116.097V302.32H-1V54.764Z" fill="#86B228"/>
<path d="M1440 55C1440 55 1373.35 55 1225.58 55C1077.82 55 989.984 68.3572 954.85 77.2625C919.716 86.1678 717.184 118.225 665 116.443V303H1440V55Z" fill="#86B228"/>
<path d="M173.615 192.542C173.615 192.542 170.115 188.237 172.448 186.32C175.165 184.088 178.281 189.43 178.281 189.43C178.281 189.43 180.448 184.163 184.115 185.492C187.781 186.82 184.115 192.542 184.115 192.542H173.615Z" fill="#85B128"/>
<path d="M173.615 192.542C172.769 191.673 172.065 190.66 171.579 189.492C171.351 188.904 171.192 188.252 171.275 187.547C171.349 186.834 171.807 186.152 172.395 185.753C172.947 185.312 173.797 185.101 174.513 185.288C175.232 185.444 175.832 185.803 176.357 186.199C177.396 187.021 178.159 188.009 178.852 189.099L177.671 189.18C178.257 187.864 179.028 186.7 180.161 185.739C180.735 185.277 181.432 184.909 182.203 184.763C182.984 184.596 183.777 184.767 184.469 185.071C185.188 185.347 185.809 186.048 186.013 186.796C186.221 187.554 186.133 188.292 185.971 188.965C185.567 190.293 184.935 191.491 184.115 192.542C184.664 191.339 185.148 190.093 185.305 188.835C185.492 187.575 185.136 186.369 184.049 186.054C182.977 185.632 181.853 185.939 180.979 186.724C180.087 187.476 179.396 188.603 178.892 189.681L178.351 190.84L177.711 189.764C177.141 188.808 176.391 187.881 175.581 187.156C174.752 186.464 173.772 186.023 172.951 186.595C172.529 186.837 172.224 187.208 172.101 187.695C171.976 188.184 172.048 188.751 172.172 189.305C172.425 190.434 172.999 191.509 173.615 192.542Z" fill="#4D7835"/>
<path d="M53.5807 144.455C53.5807 144.455 49.5807 141.232 50.8031 138.565C52.0255 135.899 57.0255 141.511 57.0255 141.511C57.0255 141.511 57.4698 135.011 60.4698 136.011C63.4698 137.011 62.3588 141.899 62.3588 141.899C62.3588 141.899 65.2474 134.812 68.5807 137.188C71.914 139.565 67.1364 143.121 67.1364 143.121" fill="#85B128"/>
<path d="M53.5805 144.455C52.5858 143.728 51.6842 142.849 50.9952 141.783C50.6608 141.244 50.3805 140.645 50.2769 139.975C50.1952 139.296 50.2545 138.592 50.7582 137.948C50.8796 137.793 51.0837 137.683 51.2556 137.565C51.4477 137.505 51.6608 137.455 51.8582 137.436C52.0425 137.451 52.2378 137.46 52.4186 137.492L52.9217 137.644C53.552 137.897 54.1061 138.237 54.6305 138.603C55.6744 139.347 56.5941 140.185 57.4686 141.115L56.4326 141.468C56.5342 140.232 56.7009 139.04 57.1358 137.841C57.3618 137.247 57.6149 136.64 58.1134 136.093C58.5696 135.533 59.4816 135.124 60.2712 135.296C61.0462 135.421 61.6842 135.812 62.1597 136.387C62.6301 136.947 62.8905 137.608 63.0368 138.249C63.3029 139.552 63.2264 140.784 62.9629 142.036L61.7853 141.665C62.3842 140.375 63.0472 139.163 63.9941 138.077C64.4586 137.539 65.002 137.032 65.6796 136.671C66.3316 136.313 67.2264 136.112 67.9816 136.435C68.6988 136.757 69.3138 137.187 69.7092 137.867C70.1238 138.537 70.1192 139.401 69.852 140.065C69.2988 141.409 68.242 142.356 67.1362 143.121C68.1061 142.205 69.0425 141.143 69.3894 139.919C69.5572 139.309 69.4592 138.703 69.1274 138.233C68.816 137.744 68.229 137.401 67.7258 137.213C66.64 136.883 65.5744 137.776 64.8285 138.768C64.055 139.767 63.4201 140.959 62.9321 142.132L60.843 147.161L61.7545 141.761C61.9316 140.712 61.9977 139.541 61.766 138.539C61.5441 137.536 60.9201 136.736 60.0572 136.604C59.3592 136.399 58.7056 137.253 58.3416 138.288C57.9676 139.299 57.7348 140.449 57.6176 141.551L57.4733 142.899L56.5816 141.904C55.7936 141.025 54.9305 140.16 54.0238 139.407C53.5644 139.039 53.0826 138.705 52.5858 138.465C52.0826 138.237 51.5853 138.157 51.3274 138.464C50.6858 139.205 50.8488 140.537 51.3821 141.565C51.9212 142.629 52.7134 143.585 53.5805 144.455Z" fill="#4D7835"/>
<path d="M325.601 96.8187C325.601 96.8187 322.581 94.3853 323.504 92.372C324.427 90.3573 328.203 94.5947 328.203 94.5947C328.203 94.5947 328.539 89.6867 330.804 90.4427C333.069 91.196 332.229 94.8893 332.229 94.8893C332.229 94.8893 334.412 89.5373 336.928 91.332C339.445 93.1267 335.839 95.812 335.839 95.812" fill="#85B128"/>
<path d="M325.601 96.8187C324.835 96.288 324.14 95.6334 323.603 94.828C323.097 94.0547 322.644 92.8934 323.4 91.8427C323.499 91.7174 323.667 91.6214 323.808 91.5254C323.964 91.4747 324.14 91.432 324.3 91.4174C324.615 91.4187 324.891 91.4854 325.145 91.5747C325.637 91.768 326.064 92.0254 326.469 92.3014C327.273 92.8614 327.975 93.492 328.645 94.2L327.611 94.5547C327.685 93.604 327.803 92.6987 328.139 91.7694C328.313 91.3094 328.507 90.8387 328.907 90.3974C329.269 89.9467 330.033 89.6 330.68 89.7427C331.949 89.9107 332.719 91.124 332.897 92.0987C333.103 93.1187 333.044 94.056 332.833 95.0254L331.656 94.6547C332.123 93.6667 332.627 92.748 333.363 91.9187C333.724 91.5094 334.147 91.12 334.681 90.84C335.193 90.564 335.911 90.4067 336.508 90.668C337.076 90.928 337.543 91.2627 337.852 91.7987C338.175 92.3307 338.159 93.0134 337.945 93.5214C337.503 94.552 336.691 95.2533 335.839 95.812C336.553 95.1013 337.247 94.2854 337.483 93.376C337.597 92.9227 337.512 92.496 337.271 92.1667C337.045 91.82 336.605 91.5707 336.251 91.4467C335.501 91.2267 334.747 91.8614 334.197 92.6094C333.635 93.3534 333.159 94.2494 332.804 95.1227L330.76 100.149L331.625 94.7507C331.749 93.984 331.799 93.108 331.627 92.3867C331.461 91.66 331.031 91.14 330.467 91.0507C330.235 91.0107 330.087 91.06 329.868 91.2787C329.659 91.4907 329.484 91.8507 329.344 92.216C329.069 92.9587 328.887 93.8214 328.795 94.6347L328.644 95.9854L327.759 94.9894C327.175 94.3334 326.529 93.676 325.861 93.1054C325.523 92.828 325.168 92.576 324.809 92.3987C324.437 92.2254 324.124 92.1774 323.969 92.3587C323.524 92.8494 323.6 93.8347 323.988 94.6107C324.377 95.4134 324.963 96.1454 325.601 96.8187Z" fill="#4D7835"/>
<path d="M158.085 122.049C158.085 122.049 155.065 119.616 155.988 117.601C156.91 115.588 160.686 119.825 160.686 119.825C160.686 119.825 161.022 114.916 163.288 115.672C165.553 116.427 164.714 120.12 164.714 120.12C164.714 120.12 166.896 114.768 169.413 116.563C171.929 118.356 168.322 121.041 168.322 121.041" fill="#85B128"/>
<path d="M158.085 122.049C157.319 121.517 156.624 120.864 156.085 120.059C155.581 119.285 155.128 118.124 155.884 117.072C155.983 116.948 156.149 116.851 156.292 116.756C156.448 116.704 156.624 116.663 156.784 116.647C157.099 116.649 157.375 116.716 157.629 116.805C158.121 116.999 158.549 117.256 158.952 117.531C159.757 118.091 160.459 118.723 161.129 119.431L160.095 119.785C160.169 118.835 160.287 117.929 160.623 117C160.797 116.54 160.991 116.069 161.391 115.627C161.752 115.177 162.517 114.829 163.165 114.973C164.433 115.141 165.201 116.352 165.383 117.328C165.587 118.348 165.528 119.287 165.319 120.256L164.14 119.885C164.607 118.897 165.111 117.979 165.847 117.148C166.208 116.737 166.631 116.349 167.165 116.071C167.677 115.792 168.395 115.637 168.992 115.899C169.559 116.159 170.028 116.493 170.336 117.029C170.659 117.561 170.643 118.243 170.429 118.752C169.987 119.783 169.173 120.483 168.323 121.041C169.037 120.332 169.731 119.515 169.967 118.607C170.081 118.153 169.996 117.727 169.755 117.396C169.529 117.051 169.089 116.8 168.736 116.677C167.985 116.457 167.231 117.091 166.681 117.84C166.119 118.583 165.643 119.48 165.288 120.352L163.244 125.38L164.111 119.981C164.233 119.213 164.281 118.339 164.111 117.617C163.945 116.891 163.516 116.369 162.951 116.281C162.719 116.239 162.572 116.291 162.353 116.509C162.141 116.721 161.968 117.081 161.828 117.447C161.553 118.187 161.369 119.051 161.279 119.865L161.128 121.215L160.244 120.22C159.659 119.563 159.013 118.905 158.345 118.336C158.007 118.057 157.652 117.807 157.293 117.627C156.921 117.456 156.608 117.407 156.453 117.589C156.008 118.079 156.084 119.064 156.472 119.841C156.861 120.644 157.447 121.376 158.085 122.049Z" fill="#4D7835"/>
<path d="M425.195 166.072C425.195 166.072 420.695 163.572 422.028 160.905C423.362 158.239 428.028 161.627 428.028 161.627C428.028 161.627 429.528 157.239 433.362 157.739C437.195 158.239 433.362 163.572 433.362 163.572" fill="#85B128"/>
<path d="M425.194 166.072C424.156 165.623 423.198 164.983 422.376 164.135C421.977 163.703 421.614 163.192 421.437 162.56C421.248 161.928 421.328 161.207 421.626 160.595C421.896 159.957 422.614 159.44 423.305 159.351C423.998 159.237 424.638 159.352 425.232 159.509C426.412 159.859 427.42 160.421 428.417 161.092L427.401 161.413C427.881 160.157 428.601 159.089 429.637 158.216C430.681 157.364 432.146 156.967 433.458 157.22C434.11 157.348 434.908 157.668 435.257 158.413C435.582 159.143 435.437 159.853 435.262 160.453C434.818 161.643 434.16 162.668 433.361 163.572C433.9 162.505 434.424 161.409 434.612 160.289C434.709 159.744 434.697 159.179 434.466 158.832C434.254 158.484 433.817 158.333 433.312 158.269C432.25 158.185 431.234 158.499 430.449 159.201C429.653 159.872 429.033 160.875 428.653 161.843L428.332 162.66L427.638 162.164C426.796 161.56 425.818 161.036 424.866 160.693C423.897 160.375 422.941 160.333 422.517 161.084C422.03 161.833 422.228 162.876 422.869 163.741C423.457 164.637 424.31 165.381 425.194 166.072Z" fill="#4D7835"/>
<path d="M296.784 130.764C296.784 131.501 293.699 132.097 289.892 132.097C286.085 132.097 283 131.501 283 130.764C283 130.028 286.085 129.431 289.892 129.431C293.699 129.431 296.784 130.028 296.784 130.764Z" fill="#709F2F"/>
<path d="M133 181.909C133 183.769 128.536 185.277 123.029 185.277C117.523 185.277 113.059 183.769 113.059 181.909C113.059 180.049 117.523 178.542 123.029 178.542C128.536 178.542 133 180.049 133 181.909Z" fill="#709F2F"/>
<path d="M352.18 236.784C336.91 236.784 325.324 232.618 293.586 231.153C288.199 230.905 282.944 230.799 277.802 230.799C263.283 230.799 249.642 231.64 236.334 232.481C223.026 233.323 210.048 234.164 196.866 234.164C184.319 234.165 171.588 233.403 158.196 231.153C111.682 223.34 86.4696 223.861 79.2653 194.067C75.4966 178.483 79.3909 175.455 86.6038 175.455C88.895 175.455 91.519 175.76 94.3404 176.065C97.1612 176.371 100.178 176.676 103.251 176.676C105.929 176.676 108.65 176.444 111.323 175.779C119.075 173.848 125.668 173.145 133.655 173.145C144.69 173.145 158.387 174.485 181.504 175.779C185.212 175.985 188.962 176.08 192.707 176.08C229.218 176.081 265.642 167.14 265.642 167.14C265.642 167.14 280.656 165.363 294.862 165.363C301.966 165.363 308.866 165.807 313.588 167.14C327.015 170.932 347.662 191.723 357.87 191.723C358.431 191.723 358.959 191.66 359.455 191.528C359.827 191.429 360.283 191.381 360.808 191.381C373.683 191.381 429.583 220.184 387.44 231.153C371.271 235.363 361.096 236.783 352.18 236.784ZM173.615 192.542H184.115C184.935 191.491 185.567 190.293 185.971 188.965C186.134 188.292 186.222 187.554 186.014 186.796C185.81 186.048 185.188 185.347 184.47 185.071C183.963 184.848 183.404 184.697 182.834 184.697C182.624 184.697 182.414 184.717 182.203 184.763C181.432 184.909 180.735 185.277 180.162 185.739C179.338 186.437 178.706 187.244 178.196 188.137C177.671 187.425 177.082 186.772 176.358 186.199C175.832 185.803 175.232 185.444 174.514 185.288C174.336 185.241 174.151 185.22 173.964 185.22C173.395 185.22 172.811 185.421 172.395 185.753C171.807 186.152 171.35 186.834 171.275 187.547C171.192 188.252 171.351 188.904 171.579 189.492C172.066 190.66 172.77 191.673 173.615 192.542ZM123.029 178.542C117.523 178.542 113.059 180.049 113.059 181.909C113.059 183.769 117.523 185.277 123.029 185.277C128.536 185.277 133 183.769 133 181.909C133 180.049 128.536 178.542 123.029 178.542Z" fill="#6F9C30"/>
<path d="M184.115 192.542H173.615C172.999 191.509 172.426 190.434 172.172 189.305C172.048 188.751 171.976 188.184 172.102 187.695C172.224 187.208 172.53 186.837 172.951 186.595C173.214 186.411 173.494 186.332 173.78 186.332C174.386 186.332 175.019 186.687 175.582 187.156C176.391 187.881 177.142 188.808 177.711 189.764L178.351 190.84L178.892 189.681C179.396 188.603 180.087 187.476 180.979 186.724C181.586 186.179 182.314 185.864 183.06 185.864C183.388 185.864 183.722 185.925 184.05 186.054C185.136 186.369 185.492 187.575 185.306 188.835C185.148 190.093 184.664 191.339 184.115 192.542Z" fill="#6D9C30"/>
<path d="M184.115 192.542C184.664 191.339 185.148 190.093 185.305 188.835C185.492 187.575 185.136 186.369 184.049 186.054C183.721 185.925 183.388 185.864 183.06 185.864C182.313 185.864 181.585 186.179 180.979 186.724C180.087 187.476 179.396 188.603 178.892 189.681L178.351 190.84L177.711 189.764C177.141 188.808 176.391 187.881 175.581 187.156C175.019 186.687 174.385 186.332 173.78 186.332C173.493 186.332 173.213 186.411 172.951 186.595C172.529 186.837 172.224 187.208 172.101 187.695C171.976 188.184 172.048 188.751 172.172 189.305C172.425 190.434 172.999 191.509 173.615 192.542C172.769 191.673 172.065 190.66 171.579 189.492C171.351 188.904 171.192 188.252 171.275 187.547C171.349 186.834 171.807 186.152 172.395 185.753C172.811 185.421 173.395 185.22 173.964 185.22C174.151 185.22 174.336 185.241 174.513 185.288C175.232 185.444 175.832 185.803 176.357 186.199C177.081 186.772 177.671 187.425 178.196 188.137C178.705 187.244 179.337 186.437 180.161 185.739C180.735 185.277 181.432 184.909 182.203 184.763C182.413 184.717 182.624 184.697 182.833 184.697C183.404 184.697 183.963 184.848 184.469 185.071C185.188 185.347 185.809 186.048 186.013 186.796C186.221 187.554 186.133 188.292 185.971 188.965C185.567 190.293 184.935 191.491 184.115 192.542Z" fill="#4D7835"/>
<path d="M123.029 185.277C117.523 185.277 113.059 183.769 113.059 181.909C113.059 180.049 117.523 178.542 123.029 178.542C128.536 178.542 133 180.049 133 181.909C133 183.769 128.536 185.277 123.029 185.277Z" fill="#629033"/>
<path d="M344.788 80.976C344.788 80.976 351.99 89.0253 354.956 97.9213C357.92 106.817 351.567 112.324 352.415 119.103C353.26 125.881 360.039 144.52 359.192 152.569C358.344 160.619 342.671 166.125 338.434 165.277C334.198 164.431 329.962 156.381 321.066 151.721C312.17 147.063 299.884 128.211 302.85 114.655C302.85 114.655 291.948 106.695 287.036 93.904C286.136 91.5573 287.822 88.996 290.334 88.896C294.584 88.7253 301.222 89.7386 307.934 95.8413C307.934 95.8413 316.83 78.4346 325.726 78.012C334.622 77.5866 344.788 80.976 344.788 80.976Z" fill="white"/>
<path d="M349.025 86.4973L349.024 86.5013C351.135 89.584 353.531 93.6493 354.956 97.9213C355.852 100.611 355.889 102.985 355.539 105.183C361.392 103.373 365.313 96.9453 367.269 92.8867C368.253 90.8413 367.365 88.3307 365.279 87.4387C357.933 84.2987 349.025 86.4973 349.025 86.4973Z" fill="white"/>
<path d="M347.441 84.2866C349.805 87.452 353.156 92.524 354.956 97.9213C355.199 98.652 355.36 99.352 355.487 100.041L355.497 100.024C360.697 90.2653 359.827 74.1986 357.073 70.036C354.32 65.8746 353.26 70.036 353.26 70.036C353.896 77.9493 347.441 84.284 347.441 84.284V84.2866Z" fill="#EFDDC0"/>
<path d="M339.917 144.732C335.045 144.944 334.621 151.511 335.045 157.229C335.463 162.865 338.433 165.277 338.433 165.277C342.671 166.125 358.344 160.619 359.192 152.569C359.265 151.865 359.263 151.059 359.231 150.209C355.879 144.084 344.783 144.52 339.917 144.732Z" fill="#F5ADA4"/>
<path d="M343.772 155.243C343.772 157.7 343.251 159.692 342.607 159.692C341.964 159.692 341.441 157.7 341.441 155.243C341.441 152.788 341.964 150.796 342.607 150.796C343.251 150.796 343.772 152.788 343.772 155.243Z" fill="#3D343A"/>
<path d="M132.977 150.875C134.248 146.425 134.46 144.308 134.036 140.284C133.632 136.443 137.284 132.788 143.141 126.017C131.68 125.189 119.532 123.717 108.19 121.664C108.532 122.636 108.885 123.619 109.253 124.609C116.032 142.825 116.88 144.787 116.88 150.795C116.88 156.804 114.761 171.63 116.88 174.173C118.997 176.716 130.435 177.563 130.435 177.563V171.63L134.248 177.563C134.248 177.563 137.213 177.139 138.484 173.115C139.754 169.089 134.036 162.1 134.036 162.1C134.036 162.1 131.706 155.323 132.977 150.875Z" fill="#F6DCD9"/>
<path d="M356.353 156.632C356.086 156.249 354.157 157.131 352.043 158.6C349.928 160.069 348.429 161.571 348.695 161.953C348.961 162.336 350.891 161.455 353.005 159.985C355.12 158.516 356.618 157.015 356.353 156.632Z" fill="#3D343A"/>
<path d="M302.849 114.655C302.849 114.655 291.948 106.695 287.036 93.904C286.136 91.5573 287.821 88.996 290.333 88.896C294.584 88.7253 301.221 89.7387 307.933 95.8413C307.933 95.8413 316.829 78.4347 325.725 78.012C327.564 77.924 329.455 78.0053 331.301 78.18C331.301 78.18 315.559 60.6427 304.12 44.1213C292.683 27.6 286.752 11.5027 263.453 11.5027C240.153 11.5027 190.589 14.4667 158.393 6.84267C126.199 -0.782669 108.83 -0.782669 103.323 0.912003C97.8161 2.60667 81.2948 2.60667 74.0932 7.68935C66.8917 12.7733 55.8776 30.5653 57.9953 53.4414C60.114 76.316 59.6901 81.404 60.9609 100.041C62.2317 118.679 141.449 129.269 176.611 126.304C211.771 123.34 230.411 128.421 255.404 134.352C269.616 137.725 289.525 133.161 304.061 128.595C302.513 123.831 301.905 118.973 302.849 114.655Z" fill="white"/>
<path d="M60.9609 100.041C60.9609 100.041 63.0797 115.291 69.8573 133.507C76.6355 151.721 77.4823 153.683 77.4823 159.692C77.4823 165.701 75.3645 180.528 77.4823 183.071C79.6005 185.612 91.0385 186.459 91.0385 186.459V180.528L94.8511 186.459C94.8511 186.459 97.8161 186.035 99.0869 182.011C100.358 177.985 94.6396 170.996 94.6396 170.996C94.6396 170.996 92.3093 164.219 93.5803 159.771C94.8511 155.323 95.0625 153.204 94.6396 149.18C94.2156 145.156 98.2396 141.343 104.594 133.929C110.948 126.516 119.738 108.936 120.692 94.0027C121.645 79.0707 109.254 63.5027 88.2855 64.456C67.3151 65.408 60.9609 86.064 60.9609 100.041Z" fill="white"/>
<path d="M216.881 84.9881C211.456 94.0494 211.469 105.428 216.465 114.733C218.01 117.611 219.856 121.645 221.96 127.297C228.737 145.515 227.604 161.307 227.604 167.316C227.604 173.325 225.486 188.152 227.604 190.694C229.722 193.236 241.16 194.083 241.16 194.083V188.152L244.972 194.083C244.972 194.083 247.938 193.66 249.209 189.635C250.48 185.611 244.761 178.622 244.761 178.622C244.761 178.622 242.43 171.844 243.701 167.396C244.972 162.948 245.185 160.829 244.761 156.804C244.337 152.78 249.049 141.767 255.404 134.352C261.758 126.94 269.861 116.561 270.813 101.627C271.766 86.6947 259.376 71.1267 238.406 72.08C227.921 72.5574 221.09 77.9587 216.881 84.9881Z" fill="white"/>
<path d="M279.426 159.771C280.697 155.323 280.909 153.204 280.485 149.18C280.174 146.227 282.634 139.513 286.474 133.216C278.165 134.929 269.55 135.933 261.904 135.325C263.872 146.54 263.329 155.5 263.329 159.692C263.329 165.7 261.21 180.528 263.329 183.071C265.446 185.612 276.885 186.459 276.885 186.459V180.528L280.697 186.459C280.697 186.459 283.662 186.035 284.933 182.011C286.204 177.985 280.485 170.996 280.485 170.996C280.485 170.996 278.156 164.219 279.426 159.771Z" fill="#F6DCD9"/>
<path d="M139.293 125.719C130.286 124.964 120.968 123.824 112.034 122.331C109.563 127.136 106.919 131.217 104.594 133.929C102.682 136.161 100.985 138.061 99.5527 139.744C99.5563 139.744 108.825 140.056 114.519 138.952C114.519 138.952 112.48 145.077 113.703 147.856C115.449 151.828 121.01 150.54 119.104 138.952C119.104 138.952 123.333 137.848 125.666 136.259C125.666 136.259 127.046 144.36 130.541 144.36C132.855 144.36 134.831 139.236 130.541 133.061C130.541 133.061 135.789 128.992 139.293 125.719Z" fill="#F5ADA4"/>
<path d="M57.9951 53.4414C57.9951 53.4414 68.5858 51.7467 75.7873 62.3374C82.9894 72.928 80.4993 75.82 90.8519 77.9747C101.205 80.128 108.821 80.092 108.19 86.2534C107.56 92.4134 101.205 92.6147 102.052 102.469C102.899 112.324 104.17 119.061 96.9686 125.436C89.7675 131.811 85.2967 158.343 76.094 150.796C76.094 150.796 73.1888 142.457 71.943 139.111C70.6982 135.765 63.1847 116.723 60.9607 100.041C60.9607 100.041 59.9769 80.6334 59.593 74.452C59.2091 68.268 57.9951 53.4414 57.9951 53.4414Z" fill="#3D343A"/>
<path d="M73.6699 17.8559C79.6007 14.4666 84.896 14.892 87.4376 21.6693C89.9794 28.448 92.521 35.2253 96.969 34.8013C101.417 34.3773 107.347 31.1999 110.737 39.8853C114.126 48.5706 117.303 50.8999 126.835 47.0866C136.365 43.2746 138.908 41.368 149.921 41.792C160.936 42.2146 174.181 33.0013 179.737 10.2839L179.74 10.2799C172.156 9.4906 164.916 8.3866 158.393 6.8426C126.199 -0.782734 108.83 -0.78273 103.324 0.911938C97.8163 2.60661 81.295 2.60661 74.0934 7.68928C71.1986 9.73328 67.6882 13.8346 64.6616 19.4906C64.669 19.4946 67.7466 21.2413 73.6699 17.8559Z" fill="#3D343A"/>
<path d="M304.12 44.1213C300.228 38.4986 296.973 32.9266 293.454 28.02C293.453 28.0306 291.832 38.616 282.94 40.308C274.044 42.004 262.898 47.9346 261.904 56.8306C260.912 65.7266 266.418 75.82 266.418 77.9746C266.418 80.128 262.077 91.3533 270.813 101.627C279.55 111.901 270.946 120.755 274.189 125.436C275.996 128.043 285.613 130.159 293.784 131.521C297.389 130.601 300.86 129.601 304.061 128.595C302.513 123.831 301.905 118.973 302.849 114.655C302.849 114.655 291.948 106.695 287.036 93.904C286.136 91.5573 287.821 88.996 290.333 88.896C294.584 88.7253 301.221 89.7386 307.933 95.8413C307.933 95.8413 316.829 78.4346 325.725 78.012C327.564 77.924 329.454 78.0053 331.301 78.18C331.301 78.18 315.558 60.6426 304.12 44.1213Z" fill="#3D343A"/>
<path d="M300.379 85.748C308.755 85.9773 310.472 78.0026 318.633 75.8546C326.795 73.708 331.301 78.18 331.301 78.18C329.455 78.0053 327.564 77.924 325.725 78.012C316.829 78.4346 307.933 95.8413 307.933 95.8413C301.221 89.7386 294.585 88.7253 290.333 88.896C287.821 88.996 286.136 91.5573 287.036 93.9026C291.948 106.695 302.849 114.655 302.849 114.655C301.905 118.973 302.513 123.831 304.061 128.595C300.86 129.601 297.389 130.601 293.784 131.521C290.336 130.967 289.444 130.492 285.977 129.968C285.977 129.968 279.617 115.157 282.124 93.036C283.356 82.1546 292.003 85.5186 300.379 85.748Z" fill="#282023"/>
<path d="M331.302 133.216C332.927 120.796 324.455 125.88 326.15 114.867C327.843 103.852 330.808 101.907 325.726 95.4653C323.108 92.148 319.144 87.844 316.404 83.608C311.515 88.8386 307.934 95.8413 307.934 95.8413C301.222 89.7387 294.584 88.7253 290.334 88.896C287.822 88.996 286.136 91.5573 287.036 93.904C291.948 106.695 302.85 114.655 302.85 114.655C300.376 125.963 308.515 140.949 316.446 148.316C316.447 148.315 329.675 145.635 331.302 133.216Z" fill="#3D343A"/>
<path d="M310.263 100.463C310.263 100.463 304.12 90.4347 307.721 77.9747C311.323 65.5147 314.5 71.0213 314.076 72.716C313.652 74.4093 315.347 85.424 320.641 89.0253C325.937 92.6253 316.148 107.876 310.263 100.463Z" fill="#EFDDC0"/>
<path d="M186.777 31.412C186.777 31.412 187.2 38.6147 181.271 41.368C175.339 44.1213 169.832 51.3227 166.655 59.16C163.477 66.9973 164.749 82.2467 175.763 75.0453C186.777 67.8453 188.684 61.4893 200.969 59.7947C213.253 58.1013 222.149 44.968 222.573 37.7667C222.997 30.5653 214.312 26.964 208.805 26.5413C203.299 26.1173 195.673 25.7027 190.167 24.428C184.659 23.152 184.659 26.5413 186.777 31.412Z" fill="#3D343A"/>
<path d="M57.9951 56.1947C57.9951 56.1947 57.1482 73.3507 49.841 84.4707C42.5332 95.592 34.5905 101.947 33.002 112.431C33.002 112.431 33.2134 115.925 36.3905 113.384C39.5676 110.843 38.5086 106.284 42.3212 102.737C46.1342 99.192 55.4717 90.5893 59.593 74.452L57.9951 56.1947Z" fill="white"/>
<path d="M112.034 122.331C113.069 120.4 114.026 118.437 114.913 116.445C115.8 114.453 116.635 112.439 117.348 110.381C118.122 108.345 118.751 106.257 119.317 104.155C119.919 102.057 120.315 99.912 120.743 97.7613C120.59 99.9453 120.317 102.135 119.815 104.276C119.347 106.425 118.706 108.533 117.974 110.607C117.202 112.665 116.369 114.703 115.374 116.663C114.385 118.624 113.304 120.541 112.034 122.331Z" fill="#F6DCD9"/>
<path d="M255.404 134.352C257.204 132.773 258.842 131.031 260.344 129.184C261.846 127.343 263.229 125.4 264.392 123.329C265.614 121.293 266.64 119.141 267.461 116.912C268.354 114.703 268.902 112.38 269.453 110.047C269.177 112.421 268.748 114.808 267.944 117.083C267.21 119.383 266.164 121.571 264.968 123.665C263.737 125.739 262.338 127.72 260.732 129.515C259.133 131.313 257.378 132.987 255.404 134.352Z" fill="#F6DCD9"/>
<path d="M221.96 127.297C220.218 124.423 218.778 121.389 217.393 118.333C216.748 116.785 216.09 115.239 215.524 113.659C214.961 112.076 214.437 110.477 214.052 108.841C215.352 111.937 216.632 115.015 218.002 118.067C219.312 121.144 220.712 124.18 221.96 127.297Z" fill="#F6DCD9"/>
<path d="M241.815 182.52C246.533 181.949 244.761 178.622 244.761 178.622C244.761 178.622 250.48 185.611 249.209 189.635C247.939 193.66 244.972 194.083 244.972 194.083L241.16 188.152V194.083C241.16 194.083 229.723 193.236 227.604 190.694C226.452 189.312 226.556 184.295 226.888 179.04C229.843 180.137 237.991 182.985 241.815 182.52Z" fill="#3D343A"/>
<path d="M131.109 166C135.829 165.428 134.056 162.1 134.056 162.1C134.056 162.1 139.774 169.089 138.504 173.115C137.232 177.139 134.268 177.563 134.268 177.563L130.455 171.63V177.563C130.455 177.563 119.018 176.716 116.899 174.173C115.747 172.792 115.85 167.775 116.182 162.519C119.138 163.617 127.285 166.464 131.109 166Z" fill="#3D343A"/>
<path d="M91.704 174.896C96.4239 174.324 94.6504 170.996 94.6504 170.996C94.6504 170.996 100.369 177.985 99.0988 182.011C97.828 186.035 94.8624 186.459 94.8624 186.459L91.0499 180.528V186.459C91.0499 186.459 79.6119 185.612 77.4931 183.071C76.3416 181.687 76.4452 176.671 76.7764 171.415C79.7327 172.513 87.8802 175.36 91.704 174.896Z" fill="#3D343A"/>
<path d="M277.578 174.972C282.298 174.4 280.525 171.071 280.525 171.071C280.525 171.071 286.244 178.063 284.973 182.085C283.702 186.111 280.737 186.534 280.737 186.534L276.925 180.604V186.534C276.925 186.534 265.486 185.687 263.368 183.145C262.217 181.763 262.32 176.745 262.652 171.491C265.608 172.588 273.754 175.436 277.578 174.972Z" fill="#3D343A"/>
<path d="M347.441 119.147C347.441 120.905 348.553 122.331 349.927 122.331C351.301 122.331 352.415 120.905 352.415 119.147C352.415 117.388 351.301 115.961 349.927 115.961C348.553 115.961 347.441 117.388 347.441 119.147Z" fill="#282023"/>
<path d="M324.051 120.297C324.051 122.057 325.329 123.483 326.907 123.483C328.484 123.483 329.763 122.057 329.763 120.297C329.763 118.539 328.484 117.113 326.907 117.113C325.329 117.113 324.051 118.539 324.051 120.297Z" fill="#282023"/>
<path d="M1246.51 152.389C1246.62 151.945 1248.4 146.612 1251.07 146.612C1253.73 146.612 1251.07 152.389 1251.07 152.389C1251.07 152.389 1254.84 149.501 1256.51 149.501C1258.18 149.501 1256.51 152.389 1256.51 152.389" fill="#85B128"/>
<path d="M1246.51 152.389C1246.71 151.193 1247.11 150.032 1247.65 148.919C1247.93 148.367 1248.25 147.821 1248.69 147.333C1249.11 146.853 1249.63 146.357 1250.37 146.14C1250.73 146.048 1251.11 145.987 1251.56 146.08C1251.77 146.092 1252 146.26 1252.2 146.375C1252.37 146.532 1252.55 146.737 1252.64 146.931C1253.01 147.747 1252.89 148.437 1252.82 149.081C1252.6 150.368 1252.17 151.512 1251.65 152.659L1250.68 151.879C1251.35 151.38 1252.04 150.949 1252.76 150.521C1253.47 150.1 1254.22 149.729 1255.02 149.427C1255.42 149.285 1255.84 149.161 1256.33 149.143C1256.56 149.131 1256.84 149.152 1257.11 149.321C1257.38 149.497 1257.52 149.831 1257.51 150.072C1257.45 151.043 1256.98 151.719 1256.51 152.389C1256.77 151.644 1257.1 150.804 1256.97 150.139C1256.89 149.613 1256.03 149.943 1255.37 150.275C1254.01 150.976 1252.7 151.949 1251.46 152.9L1249.51 154.388L1250.48 152.12C1250.93 151.075 1251.31 149.943 1251.53 148.868C1251.62 148.343 1251.63 147.777 1251.51 147.479C1251.45 147.348 1251.41 147.287 1251.26 147.243C1251.11 147.196 1250.89 147.207 1250.67 147.244C1249.77 147.449 1248.94 148.373 1248.28 149.299C1247.6 150.245 1247.03 151.3 1246.51 152.389Z" fill="#4D7835"/>
<path d="M1157.37 204.484C1157.37 204.484 1152.87 201.984 1154.21 199.317C1155.54 196.651 1160.21 200.04 1160.21 200.04C1160.21 200.04 1161.71 195.651 1165.54 196.151C1169.37 196.651 1165.54 201.984 1165.54 201.984L1157.37 204.484Z" fill="#85B128"/>
<path d="M1157.37 204.484C1156.33 204.034 1155.38 203.394 1154.55 202.546C1154.16 202.115 1153.79 201.604 1153.61 200.97C1153.42 200.341 1153.5 199.618 1153.8 199.008C1154.07 198.369 1154.79 197.851 1155.48 197.763C1156.18 197.651 1156.82 197.764 1157.41 197.92C1158.59 198.27 1159.6 198.834 1160.59 199.504L1159.58 199.825C1160.06 198.57 1160.78 197.501 1161.81 196.627C1162.86 195.777 1164.32 195.38 1165.64 195.63C1166.29 195.761 1167.08 196.08 1167.43 196.825C1167.76 197.554 1167.61 198.265 1167.44 198.864C1167 200.054 1166.34 201.08 1165.54 201.984C1166.08 200.916 1166.6 199.823 1166.79 198.7C1166.89 198.156 1166.87 197.589 1166.64 197.244C1166.43 196.897 1166 196.744 1165.49 196.681C1164.43 196.599 1163.41 196.911 1162.63 197.615C1161.83 198.284 1161.21 199.287 1160.83 200.253L1160.51 201.072L1159.82 200.575C1158.97 199.972 1158 199.448 1157.04 199.106C1156.07 198.787 1155.12 198.744 1154.69 199.497C1154.21 200.245 1154.41 201.289 1155.05 202.155C1155.63 203.051 1156.49 203.792 1157.37 204.484Z" fill="#4D7835"/>
<path d="M1130.31 145.033C1130.31 145.904 1126.43 146.612 1121.65 146.612C1116.87 146.612 1113 145.904 1113 145.033C1113 144.161 1116.87 143.455 1121.65 143.455C1126.43 143.455 1130.31 144.161 1130.31 145.033Z" fill="#709F2F"/>
<path d="M1267.97 216.876C1267.97 217.857 1264.36 218.653 1259.92 218.653C1255.48 218.653 1251.88 217.857 1251.88 216.876C1251.88 215.894 1255.48 215.097 1259.92 215.097C1264.36 215.097 1267.97 215.894 1267.97 216.876Z" fill="#709F2F"/>
<path d="M1242.54 233.642C1238.72 233.642 1234.12 233.151 1228.63 231.876C1204.55 226.285 1196.07 222.064 1196.07 222.064C1196.07 222.064 1194.33 222.316 1191.56 222.316C1186.39 222.316 1177.66 221.437 1170.12 216.396C1165.33 213.191 1160.01 208.145 1155.43 203.332C1156.03 203.803 1156.68 204.185 1157.37 204.484L1165.54 201.984C1166.34 201.08 1167 200.054 1167.44 198.864C1167.61 198.265 1167.76 197.554 1167.43 196.825C1167.08 196.08 1166.29 195.761 1165.64 195.63C1165.37 195.581 1165.11 195.556 1164.84 195.556C1163.75 195.556 1162.65 195.947 1161.81 196.627C1160.99 197.318 1160.37 198.133 1159.91 199.065C1159.13 198.589 1158.32 198.191 1157.41 197.92C1156.98 197.808 1156.53 197.717 1156.05 197.717C1155.87 197.717 1155.68 197.73 1155.48 197.763C1154.79 197.851 1154.07 198.369 1153.8 199.008C1153.5 199.618 1153.42 200.341 1153.61 200.971C1153.7 201.267 1153.82 201.536 1153.97 201.784C1148.2 195.584 1143.92 190.165 1143.92 190.165L1257.44 175.325C1259.16 175.975 1284.1 186.725 1282.38 199.195C1281.12 208.351 1277.3 209.568 1275.37 209.568C1274.66 209.568 1274.21 209.408 1274.21 209.408C1274.21 209.408 1289.69 219.836 1288.83 225.425C1288.29 228.9 1287.93 231.876 1281.01 231.876C1276.8 231.876 1270.17 230.772 1259.59 228.005C1259.59 228.005 1255.49 233.642 1242.54 233.642ZM1259.92 215.097C1255.48 215.097 1251.88 215.895 1251.88 216.876C1251.88 217.857 1255.48 218.653 1259.92 218.653C1264.36 218.653 1267.97 217.857 1267.97 216.876C1267.97 215.895 1264.36 215.097 1259.92 215.097Z" fill="#689932"/>
<path d="M1157.37 204.484C1156.49 203.792 1155.63 203.051 1155.05 202.155C1154.41 201.289 1154.21 200.245 1154.69 199.497C1154.94 199.057 1155.37 198.888 1155.88 198.888C1156.24 198.888 1156.64 198.973 1157.04 199.106C1158 199.448 1158.97 199.972 1159.82 200.575L1160.51 201.072L1160.83 200.253C1161.21 199.287 1161.83 198.284 1162.63 197.615C1163.33 196.985 1164.22 196.669 1165.16 196.669C1165.27 196.669 1165.38 196.673 1165.49 196.681C1166 196.744 1166.43 196.897 1166.64 197.244C1166.87 197.589 1166.89 198.156 1166.79 198.7C1166.6 199.823 1166.08 200.916 1165.54 201.984L1157.37 204.484Z" fill="#699831"/>
<path d="M1157.37 204.484C1156.68 204.185 1156.03 203.803 1155.43 203.332C1154.93 202.812 1154.45 202.294 1153.97 201.784C1153.82 201.536 1153.7 201.267 1153.61 200.97C1153.42 200.341 1153.5 199.618 1153.8 199.008C1154.07 198.369 1154.79 197.851 1155.48 197.763C1155.68 197.73 1155.87 197.717 1156.05 197.717C1156.53 197.717 1156.98 197.808 1157.41 197.92C1158.32 198.191 1159.13 198.589 1159.91 199.065C1160.37 198.133 1160.99 197.318 1161.81 196.627C1162.65 195.946 1163.75 195.556 1164.84 195.556C1165.11 195.556 1165.37 195.581 1165.64 195.63C1166.29 195.761 1167.08 196.08 1167.43 196.825C1167.76 197.554 1167.61 198.265 1167.44 198.864C1167 200.054 1166.34 201.08 1165.54 201.984C1166.08 200.916 1166.6 199.823 1166.79 198.7C1166.89 198.156 1166.87 197.589 1166.64 197.244C1166.43 196.897 1166 196.744 1165.49 196.681C1165.38 196.673 1165.27 196.669 1165.16 196.669C1164.22 196.669 1163.33 196.985 1162.63 197.615C1161.83 198.284 1161.21 199.287 1160.83 200.253L1160.51 201.072L1159.82 200.575C1158.97 199.972 1158 199.448 1157.04 199.106C1156.64 198.973 1156.24 198.888 1155.88 198.888C1155.37 198.888 1154.94 199.057 1154.69 199.497C1154.21 200.245 1154.41 201.289 1155.05 202.155C1155.63 203.051 1156.49 203.792 1157.37 204.484Z" fill="#4E7B36"/>
<path d="M1259.92 218.653C1255.48 218.653 1251.88 217.857 1251.88 216.876C1251.88 215.894 1255.48 215.097 1259.92 215.097C1264.36 215.097 1267.97 215.894 1267.97 216.876C1267.97 217.857 1264.36 218.653 1259.92 218.653Z" fill="#5E8F34"/>
<path d="M1264.51 177.539C1264.51 171.311 1259.82 166.263 1254.03 166.263C1252.97 166.263 1251.97 166.483 1251 166.797C1251.01 166.619 1251.03 166.444 1251.03 166.263C1251.03 156.989 1244.04 149.472 1235.42 149.472C1233.58 149.472 1231.82 149.835 1230.17 150.467C1230.19 150.135 1230.22 149.808 1230.22 149.472C1230.22 138.165 1221.7 129 1211.19 129C1205.34 129 1200.11 131.849 1196.61 136.325C1193.02 133.4 1188.56 131.643 1183.7 131.643C1171.85 131.643 1162.24 141.979 1162.24 154.731C1162.24 155.547 1162.28 156.351 1162.36 157.145C1160.16 155.624 1157.55 154.731 1154.73 154.731C1148.01 154.731 1142.39 159.783 1140.96 166.547C1135.75 167.248 1131.71 172.02 1131.71 177.816C1131.71 184.095 1136.44 189.184 1142.28 189.184C1142.39 189.184 1142.56 189.241 1142.78 189.324C1143.03 193.593 1146.53 196.991 1150.86 196.991C1154.08 196.991 1156.83 195.109 1158.15 192.401L1158.91 192.372C1164.58 197.515 1178.27 201.144 1194.28 201.144C1210.37 201.144 1224.11 197.479 1229.73 192.297C1231.22 192.563 1232.8 192.711 1234.45 192.711C1238.15 192.711 1241.52 191.995 1244.14 190.809C1245.82 191.973 1248.18 192.711 1250.82 192.711C1255.84 192.711 1259.91 190.072 1259.99 186.803C1262.72 184.768 1264.51 181.383 1264.51 177.539Z" fill="#528B37"/>
<path d="M1254.03 166.263C1252.97 166.263 1251.97 166.483 1251 166.797C1251.01 166.619 1251.03 166.444 1251.03 166.263C1251.03 156.989 1244.04 149.472 1235.42 149.472C1233.86 149.472 1232.36 149.745 1230.94 150.209C1232.36 151.767 1235.46 155.697 1235.97 160.885C1236.64 167.653 1230.22 173.32 1230.22 173.32C1230.22 173.32 1231.42 181.32 1225.53 185.32C1219.64 189.32 1208.8 185.32 1208.8 185.32C1208.8 185.32 1206.41 196.071 1185.97 196.111C1165.54 196.151 1158.91 192.372 1158.91 192.372C1164.58 197.515 1178.27 201.144 1194.28 201.144C1210.37 201.144 1224.11 197.479 1229.73 192.297C1231.22 192.563 1232.8 192.711 1234.45 192.711C1238.15 192.711 1241.52 191.995 1244.14 190.809C1245.82 191.973 1248.18 192.711 1250.82 192.711C1255.84 192.711 1259.91 190.072 1259.99 186.803C1262.72 184.768 1264.51 181.383 1264.51 177.539C1264.51 171.311 1259.82 166.263 1254.03 166.263Z" fill="#3A6031"/>
</svg>
