<svg width="45" height="47" viewBox="0 0 45 47" fill="none" xmlns="http://www.w3.org/2000/svg">
<path d="M45 26.6567C45 26.3628 44.8592 26.0867 44.6214 25.9142L41.2097 23.4389L44.6214 20.9635C44.8593 20.791 45 20.5148 45 20.221C45 19.9271 44.8592 19.6511 44.6214 19.4786L18.0156 0.174909C17.6942 -0.0583029 17.2595 -0.0583029 16.9382 0.174909L0.378553 12.1897C0.140664 12.3622 0 12.6383 0 12.9321C0 13.226 0.140844 13.502 0.378553 13.6745L3.79029 16.1499L0.378553 18.6254C0.140664 18.7979 0 19.074 0 19.3679C0 19.6617 0.140844 19.9378 0.378553 20.1103L3.8072 22.5979L0.378553 25.0854C0.140664 25.258 0 25.5341 0 25.8279C0 26.1218 0.140844 26.3978 0.378553 26.5703L26.9843 45.8739C27.145 45.9905 27.334 46.0488 27.5231 46.0488C27.7121 46.0488 27.9011 45.9905 28.0618 45.8739L44.6214 33.8593C44.8593 33.6867 45 33.4106 45 33.1168C45 32.8229 44.8592 32.5469 44.6214 32.3744L41.1928 29.8868L44.6214 27.3993C44.8593 27.2266 45 26.9506 45 26.6567ZM2.47934 12.9321L17.4769 2.05076L42.5207 20.221L27.5231 31.1024L2.47934 12.9321ZM42.5207 33.1168L27.5231 43.9981L2.47934 25.8279L5.36926 23.7312L26.9844 39.414C27.1451 39.5305 27.3341 39.5888 27.5232 39.5888C27.7122 39.5888 27.9012 39.5305 28.0619 39.414L39.6309 31.0202L42.5207 33.1168ZM27.5231 37.538L2.47934 19.3678L5.35244 17.2832L26.9845 32.978C27.1452 33.0946 27.3342 33.1529 27.5233 33.1529C27.7123 33.1529 27.9013 33.0946 28.062 32.978L39.6478 24.5721L42.5209 26.6567L27.5231 37.538Z" fill="black"/>
<path d="M24.9368 20.3978L13.49 12.0926C13.08 11.7951 12.5065 11.8863 12.2089 12.2964C11.9113 12.7065 12.0025 13.2801 12.4127 13.5776L23.8594 21.8828C24.0221 22.0008 24.2106 22.0576 24.3974 22.0576C24.6813 22.0576 24.9611 21.9262 25.1406 21.679C25.4381 21.2689 25.3469 20.6954 24.9368 20.3978Z" fill="black"/>
<path d="M27.9135 22.5571L27.5032 22.2594C27.0932 21.9619 26.5195 22.053 26.2221 22.4631C25.9245 22.8731 26.0158 23.4467 26.4258 23.7442L26.8361 24.0419C26.9988 24.16 27.1872 24.2169 27.374 24.2169C27.6579 24.2169 27.9377 24.0855 28.1172 23.8382C28.4148 23.4282 28.3235 22.8547 27.9135 22.5571Z" fill="black"/>
<path d="M31.5699 18.9008L17.1467 8.43617C16.7366 8.13865 16.163 8.22976 15.8656 8.63997C15.568 9.05 15.6593 9.62363 16.0694 9.92115L30.4925 20.3857C30.6552 20.5038 30.8436 20.5606 31.0304 20.5606C31.3144 20.5606 31.5942 20.4292 31.7737 20.1819C32.0712 19.772 31.98 19.1984 31.5699 18.9008Z" fill="black"/>
</svg>
