<svg width="48" height="48" viewBox="0 0 48 48" fill="none" xmlns="http://www.w3.org/2000/svg">
<path d="M22.0049 4H18.0049C8.00488 4 4.00488 8 4.00488 18V30C4.00488 40 8.00488 44 18.0049 44H30.0049C40.0049 44 44.0049 40 44.0049 30V26" stroke="#292D32" stroke-width="2" stroke-linecap="round" stroke-linejoin="round"/>
<path d="M32.0846 6.04002L16.3246 21.8C15.7246 22.4 15.1246 23.58 15.0046 24.44L14.1446 30.46C13.8246 32.64 15.3646 34.16 17.5446 33.86L23.5646 33C24.4046 32.88 25.5846 32.28 26.2046 31.68L41.9646 15.92C44.6846 13.2 45.9646 10.04 41.9646 6.04002C37.9646 2.04002 34.8046 3.32002 32.0846 6.04002Z" stroke="#292D32" stroke-width="2" stroke-miterlimit="10" stroke-linecap="round" stroke-linejoin="round"/>
<path d="M29.8247 8.2998C31.1647 13.0798 34.9047 16.8198 39.7047 18.1798" stroke="#292D32" stroke-width="2" stroke-miterlimit="10" stroke-linecap="round" stroke-linejoin="round"/>
</svg>
