<svg width="45" height="45" viewBox="0 0 45 45" fill="none" xmlns="http://www.w3.org/2000/svg">
<path d="M22.5 0C10.125 0 0 10.125 0 22.5C0 34.875 10.125 45 22.5 45C34.875 45 45 34.875 45 22.5C45 10.125 34.875 0 22.5 0ZM22.5 43.4531C10.9688 43.4531 1.54688 34.0312 1.54688 22.5C1.54688 10.9688 10.9688 1.54688 22.5 1.54688C34.0312 1.54688 43.4531 10.9688 43.4531 22.5C43.4531 34.0312 34.0312 43.4531 22.5 43.4531Z" fill="black"/>
<path d="M22.5 4.14844C12.375 4.14844 4.14844 12.375 4.14844 22.5C4.14844 32.625 12.375 40.8516 22.5 40.8516C32.625 40.8516 40.8516 32.625 40.8516 22.5C40.8516 12.375 32.625 4.14844 22.5 4.14844ZM23.2734 39.2344V37.0547C23.2734 36.6328 22.9219 36.2812 22.5 36.2812C22.0781 36.2812 21.7266 36.6328 21.7266 37.0547V39.2344C13.0781 38.8828 6.11719 31.9219 5.76562 23.2734H7.94531C8.36719 23.2734 8.71875 22.9219 8.71875 22.5C8.71875 22.0781 8.36719 21.7266 7.94531 21.7266H5.76562C6.11719 13.0781 13.0781 6.11719 21.7266 5.76562V7.94531C21.7266 8.36719 22.0781 8.71875 22.5 8.71875C22.9219 8.71875 23.2734 8.36719 23.2734 7.94531V5.76562C31.9219 6.1875 38.8828 13.1484 39.2344 21.7266H37.0547C36.6328 21.7266 36.2812 22.0781 36.2812 22.5C36.2812 22.9219 36.6328 23.2734 37.0547 23.2734H39.2344C38.8828 31.9219 31.9219 38.8828 23.2734 39.2344Z" fill="black"/>
<path d="M22.5 19.8984C21.0938 19.8984 19.8984 21.0234 19.8984 22.5C19.8984 23.9766 21.0234 25.1016 22.5 25.1016C23.9766 25.1016 25.1016 23.9766 25.1016 22.5C25.1016 21.0234 23.9063 19.8984 22.5 19.8984ZM22.5 23.5547C21.9375 23.5547 21.4453 23.0625 21.4453 22.5C21.4453 21.9375 21.9375 21.4453 22.5 21.4453C23.0625 21.4453 23.5547 21.9375 23.5547 22.5C23.5547 23.0625 23.0625 23.5547 22.5 23.5547Z" fill="black"/>
<path d="M34.875 21.7969L26.5078 18.5625L23.2734 10.125C23.1328 9.84375 22.8516 9.63281 22.5703 9.63281C22.2187 9.63281 21.9375 9.84375 21.8672 10.125L18.6328 18.5625L10.1953 21.7969C9.91406 21.9375 9.70312 22.2187 9.70312 22.5C9.70312 22.8516 9.91406 23.1328 10.1953 23.2031L18.6328 26.4375L21.7969 34.875C21.9375 35.1562 22.2188 35.3672 22.5 35.3672C22.8516 35.3672 23.1328 35.1562 23.2031 34.875L26.4375 26.4375L34.875 23.2031C35.1562 23.0625 35.3672 22.7812 35.3672 22.5C35.3672 22.2187 35.1562 21.8672 34.875 21.7969ZM25.5938 25.1016C25.3828 25.1719 25.2422 25.3125 25.1719 25.5234L22.5 32.4141L19.8984 25.5938C19.8281 25.3828 19.6875 25.2422 19.4766 25.1719L12.5859 22.5L19.4766 19.8984C19.6875 19.8281 19.8281 19.6875 19.8984 19.4766L22.5 12.5859L25.1016 19.4766C25.1719 19.6875 25.3125 19.8281 25.5234 19.8984L32.3438 22.5L25.5938 25.1016Z" fill="black"/>
</svg>
