<svg width="56" height="50" viewBox="0 0 56 50" fill="none" xmlns="http://www.w3.org/2000/svg">
<path d="M21.7042 7.12051C23.5771 6.61931 25.5661 6.33333 27.6667 6.33333C44.6363 6.33333 54.3333 25 54.3333 25C54.3333 25 52.1227 29.2555 47.9653 33.7027M7.26432 16.4086C3.17387 20.8152 1 25 1 25C1 25 10.697 43.6667 27.6667 43.6667C29.8056 43.6667 31.8288 43.3701 33.7317 42.8517M26.3333 32.8893C23.4421 32.4043 21.0769 30.3685 20.1219 27.6667M29 17.1106C32.3501 17.6726 34.9941 20.3165 35.556 23.6667M3.66667 1L51.6667 49" stroke="black" stroke-width="2" stroke-linecap="round" stroke-linejoin="round"/>
</svg>
