<svg width="80" height="80" viewBox="0 0 80 80" fill="none" xmlns="http://www.w3.org/2000/svg">
<path d="M0 39.6094C0 37.7806 4.45586 36.2902 4.70643 34.5314C4.96349 32.7282 1.1091 30.0482 1.61074 28.3373C2.12111 26.5956 6.81642 26.423 7.56095 24.7959C8.31316 23.1499 5.37559 19.4871 6.34692 17.9796C7.32441 16.4619 11.8773 17.6207 13.0551 16.2619C14.2347 14.9014 12.4448 10.5583 13.8058 9.37897C15.1638 8.19962 19.2086 10.5874 20.7251 9.61143C22.2342 8.6389 21.7337 3.96767 23.38 3.21563C25.0068 2.47042 28.2098 5.90076 29.9532 5.39143C31.6641 4.88892 32.5067 0.267281 34.3082 0.0109024C36.0687 -0.240349 38.1727 3.9557 39.9998 3.9557C41.8287 3.9557 43.9327 -0.240349 45.6932 0.0109024C47.4946 0.267281 48.339 4.88892 50.0482 5.39143C51.7898 5.90247 54.9946 2.47042 56.6217 3.21563C58.2677 3.96767 57.7669 8.6389 59.2761 9.61143C60.7938 10.5874 64.8378 8.19962 66.1966 9.37897C67.5571 10.5583 65.7676 14.9014 66.9469 16.2619C68.1246 17.6207 72.6778 16.4619 73.6555 17.9796C74.6263 19.4871 71.6882 23.1516 72.4403 24.7959C73.1855 26.423 77.8806 26.5956 78.3917 28.3373C78.8924 30.0482 75.0382 32.7282 75.2946 34.5314C75.5459 36.2902 80 37.7806 80 39.6094C80 41.4365 75.5459 42.9287 75.2946 44.6874C75.0382 46.4889 78.8924 49.1689 78.3917 50.8798C77.8806 52.6215 73.1855 52.7941 72.4403 54.4212C71.6882 56.0672 74.6263 59.73 73.6555 61.2392C72.6778 62.7553 68.1246 61.5981 66.9469 62.9552C65.7659 64.3175 67.5571 68.6588 66.1966 69.8399C64.8378 71.0175 60.7938 68.6297 59.2761 69.6074C57.7669 70.5782 58.2677 75.2511 56.6217 76.0032C54.9946 76.7467 51.7898 73.3163 50.0482 73.8274C48.339 74.3282 47.4946 78.9498 45.6932 79.2079C43.9327 79.4575 41.8287 75.2614 39.9998 75.2614C38.1727 75.2614 36.0687 79.4575 34.3082 79.2079C32.5067 78.9498 31.6641 74.3282 29.9532 73.8274C28.2098 73.3163 25.0068 76.7467 23.3785 76.0032C21.7337 75.2494 22.2342 70.5782 20.7251 69.6074C19.207 68.6297 15.1638 71.0175 13.8043 69.8399C12.4434 68.6588 14.2347 64.3175 13.0551 62.9552C11.8773 61.5981 7.32439 62.7553 6.34674 61.2392C5.3754 59.73 8.31316 56.0672 7.56095 54.4212C6.81642 52.7941 2.12111 52.6215 1.61074 50.8798C1.1091 49.1689 4.96349 46.4889 4.70643 44.6874C4.45586 42.9287 0 41.4365 0 39.6094Z" fill="#FCAB28"/>
<path d="M7.82666 39.6097C7.82666 21.8402 22.2308 7.43469 40.0004 7.43469C57.7716 7.43469 72.1754 21.8402 72.1754 39.6097C72.1754 57.3793 57.7716 71.7831 40.0004 71.7831C22.2308 71.7831 7.82666 57.3793 7.82666 39.6097Z" fill="#FFCE45"/>
<path d="M40.0007 8.08503C22.6197 8.08503 8.47872 22.2254 8.47872 39.608C8.47872 56.9889 22.6197 71.1293 40.0007 71.1293C57.3833 71.1293 71.5236 56.9889 71.5236 39.608C71.5236 22.2254 57.3833 8.08503 40.0007 8.08503ZM40.0007 72.4338C31.2335 72.4338 22.9896 69.02 16.7897 62.8187C10.589 56.6191 7.17432 48.3751 7.17432 39.608C7.17432 30.8392 10.589 22.5952 16.7897 16.3956C22.9896 10.1943 31.2335 6.78046 40.0007 6.78046C48.7694 6.78046 57.0134 10.1943 63.2147 16.3956C69.4126 22.5952 72.8282 30.8392 72.8282 39.608C72.8282 48.3751 69.4126 56.6191 63.2147 62.8187C57.0134 69.02 48.7694 72.4338 40.0007 72.4338Z" fill="#FCAB28"/>
<path d="M16.957 39.6087C16.957 26.882 27.2746 16.5645 40.0013 16.5645C52.728 16.5645 63.0455 26.882 63.0455 39.6087C63.0455 52.3354 52.728 62.653 40.0013 62.653C27.2746 62.653 16.957 52.3354 16.957 39.6087Z" fill="#FFD733"/>
<path d="M59.1331 30.4781C59.1331 29.0101 58.9885 27.5775 58.7267 26.1866C54.5444 20.3613 47.7185 16.5645 40.0013 16.5645C27.2746 16.5645 16.957 26.8821 16.957 39.6087C16.957 41.0751 17.1 42.5094 17.3634 43.9002C21.5456 49.7239 28.3715 53.5223 36.0888 53.5223C48.8155 53.5223 59.1331 43.2048 59.1331 30.4781Z" fill="#FFE266"/>
<path d="M40.0016 17.2356C27.6658 17.2356 17.6293 27.272 17.6293 39.6079C17.6293 51.9437 27.6658 61.9802 40.0016 61.9802C52.3391 61.9802 62.3755 51.9437 62.3755 39.6079C62.3755 27.272 52.3391 17.2356 40.0016 17.2356ZM40.0016 63.3231C26.9251 63.3231 16.2864 52.6844 16.2864 39.6079C16.2864 26.5313 26.9251 15.8927 40.0016 15.8927C53.0781 15.8927 63.7168 26.5313 63.7168 39.6079C63.7168 52.6844 53.0781 63.3231 40.0016 63.3231Z" fill="#FCAB28"/>
<path d="M24.0803 20.4395L26.1105 15.3109L28.0099 20.5105L31.5683 22.5407L27.9389 24.4417L25.9087 30.963L24.0077 24.3707L20.4509 22.3406L24.0803 20.4395Z" fill="white"/>
<g clip-path="url(#clip0_60_1639)">
<path d="M40.0001 41.7629C40.8442 41.7629 41.5285 41.4892 41.5285 41.1515C41.5285 40.8139 40.8442 40.5402 40.0001 40.5402C39.156 40.5402 38.4717 40.8139 38.4717 41.1515C38.4717 41.4892 39.156 41.7629 40.0001 41.7629Z" fill="#FCAB28"/>
<path d="M35.8478 38.7794C36.6075 38.7794 37.2233 38.1635 37.2233 37.4038C37.2233 36.6441 36.6075 36.0282 35.8478 36.0282C35.088 36.0282 34.4722 36.6441 34.4722 37.4038C34.4722 38.1635 35.088 38.7794 35.8478 38.7794Z" fill="#FCAB28"/>
<path d="M44.1524 38.7794C44.9122 38.7794 45.528 38.1635 45.528 37.4038C45.528 36.6441 44.9122 36.0282 44.1524 36.0282C43.3927 36.0282 42.7769 36.6441 42.7769 37.4038C42.7769 38.1635 43.3927 38.7794 44.1524 38.7794Z" fill="#FCAB28"/>
<path d="M54.4884 45.7142C54.3141 45.1291 54.1497 44.5764 54.1154 44.1949C53.9406 42.2538 54.0262 36.3388 54.0268 36.2752C54.0268 28.6618 47.7419 22.468 40.0166 22.468C32.2913 22.4674 26.0058 28.6612 26.0058 36.2856C26.0082 36.3455 26.2027 42.2972 26.007 44.2432C25.9685 44.6321 25.779 45.1982 25.5791 45.7943C25.1976 46.9357 24.802 48.1175 25.1101 48.8952C25.4287 49.6954 26.9742 50.4798 27.6773 50.6229C30.5085 51.2 34.9398 51.532 39.8356 51.532C39.8368 51.532 39.8368 51.532 39.8368 51.532C44.8122 51.532 49.3424 51.1958 52.266 50.6094C52.9893 50.4646 54.5244 49.7052 54.868 48.9007C55.2024 48.1175 54.8387 46.8966 54.4884 45.7142ZM48.7928 41.0024C47.5493 44.6156 44.0889 47.22 40.0025 47.228C35.9125 47.22 32.4484 44.6125 31.2067 40.992C31.1963 40.9981 31.1859 40.9993 31.1762 41.0042C31.1749 41.0005 31.1725 40.9969 31.1713 40.992C31.0123 41.0684 30.8381 41.11 30.654 41.113C29.9021 41.1014 29.3011 40.4069 29.3011 39.5467C29.3011 38.6889 29.9021 37.9932 30.6547 37.9822C30.6608 37.9828 30.6657 37.9834 30.6699 37.984C30.8796 38.3411 31.1187 38.6846 31.3907 39.013C31.1749 38.2738 31.0484 37.5188 31.0135 36.7613C31.7148 36.0515 32.3261 34.9107 32.6526 33.5503C32.7981 32.9433 32.8727 32.349 32.8856 31.792C33.5947 32.8644 34.4342 33.9386 35.1403 34.2968C36.1148 34.7914 37.7631 35.0317 40.1817 35.0317C42.9261 35.0317 46.005 34.7077 47.6373 34.5084C47.9809 35.4456 48.4578 36.2269 48.9879 36.7631C48.9518 37.5175 48.8252 38.275 48.6106 39.013C48.8815 38.6859 49.1217 38.3417 49.3308 37.9846C50.0755 38.0066 50.6667 38.6957 50.6667 39.5479C50.6667 40.4057 50.0663 41.1014 49.3137 41.1136C49.1431 41.1106 48.9805 41.0733 48.8301 41.0036C48.8289 41.0079 48.8277 41.0115 48.8265 41.0152C48.8142 41.0103 48.8026 41.0085 48.7928 41.0024Z" fill="#FCAB28"/>
</g>
<defs>
<clipPath id="clip0_60_1639">
<rect width="30" height="30" fill="white" transform="translate(25 22)"/>
</clipPath>
</defs>
</svg>
