<svg width="47" height="47" viewBox="0 0 47 47" fill="none" xmlns="http://www.w3.org/2000/svg">
<path d="M23.7702 25.2551C23.6127 25.2326 23.4102 25.2326 23.2302 25.2551C19.2702 25.1201 16.1201 21.8801 16.1201 17.8976C16.1201 13.8251 19.4052 10.5176 23.5002 10.5176C27.5727 10.5176 30.8802 13.8251 30.8802 17.8976C30.8577 21.8801 27.7302 25.1201 23.7702 25.2551Z" stroke="black" stroke-width="2" stroke-linecap="round" stroke-linejoin="round"/>
<path d="M38.6652 40.1053C34.6602 43.7728 29.3502 46.0003 23.5002 46.0003C17.6502 46.0003 12.3402 43.7728 8.33521 40.1053C8.56021 37.9903 9.91021 35.9203 12.3177 34.3003C18.4827 30.2053 28.5627 30.2053 34.6827 34.3003C37.0902 35.9203 38.4402 37.9903 38.6652 40.1053Z" stroke="black" stroke-width="2" stroke-linecap="round" stroke-linejoin="round"/>
<path d="M23.5 46C35.9263 46 46 35.9263 46 23.5C46 11.0736 35.9263 1 23.5 1C11.0736 1 1 11.0736 1 23.5C1 35.9263 11.0736 46 23.5 46Z" stroke="black" stroke-width="2" stroke-linecap="round" stroke-linejoin="round"/>
</svg>
