<svg width="60" height="48" viewBox="0 0 60 48" fill="none" xmlns="http://www.w3.org/2000/svg">
<path d="M59.2883 40.5474C59.2725 40.5763 59.2599 40.6062 59.2415 40.6337C59.1996 40.6967 59.1516 40.7553 59.0982 40.8088L52.2418 47.6653C52.0275 47.8796 51.7368 48 51.4337 48C51.1306 48 50.84 47.8796 50.6257 47.6653C50.4114 47.451 50.291 47.1603 50.291 46.8573C50.291 46.5542 50.4114 46.2635 50.6257 46.0492L55.5317 41.1429H49.4153C46.3233 41.1398 43.2766 40.4002 40.5273 38.9854C37.778 37.5705 35.4053 35.5212 33.6055 33.007L21.6875 16.3217C20.0995 14.1032 18.0059 12.2949 15.5801 11.0465C13.1542 9.79806 10.4659 9.14549 7.73762 9.14278H1.14775C0.84464 9.14278 0.553948 9.02238 0.33962 8.80805C0.125291 8.59372 0.00488281 8.30303 0.00488281 7.99992C0.00488281 7.69681 0.125291 7.40612 0.33962 7.19179C0.553948 6.97746 0.84464 6.85706 1.14775 6.85706H7.73762C10.8296 6.86021 13.8763 7.59982 16.6256 9.01463C19.3749 10.4295 21.7477 12.4788 23.5474 14.993L35.4654 31.6783C37.0534 33.8968 39.147 35.7051 41.5728 36.9535C43.9987 38.2019 46.687 38.8545 49.4153 38.8572H55.5317L50.6257 33.9509C50.4114 33.7366 50.291 33.446 50.291 33.1429C50.291 32.8398 50.4114 32.5492 50.6257 32.3349C50.84 32.1206 51.1306 32.0002 51.4337 32.0002C51.7368 32.0002 52.0275 32.1206 52.2418 32.3349L59.0982 39.1913C59.1516 39.2449 59.1996 39.3035 59.2415 39.3664C59.2599 39.394 59.2725 39.4239 59.2883 39.4526C59.3096 39.4884 59.329 39.5252 59.3464 39.563C59.3604 39.6009 59.3724 39.6396 59.3823 39.6789C59.3919 39.7114 59.4045 39.7425 59.4112 39.7762C59.4406 39.924 59.4406 40.0761 59.4112 40.2239C59.4045 40.2576 59.3919 40.2888 59.3823 40.3214C59.3724 40.3606 59.3604 40.3992 59.3464 40.4372C59.329 40.4749 59.3096 40.5118 59.2883 40.5474ZM33.5302 17.0647C33.7768 17.2409 34.0833 17.3119 34.3823 17.262C34.6813 17.2122 34.9483 17.0457 35.1245 16.7991L35.4654 16.3217C37.0534 14.1032 39.147 12.2949 41.5729 11.0465C43.9987 9.7981 46.6871 9.14552 49.4153 9.14278H55.5317L50.6257 14.0491C50.5196 14.1552 50.4354 14.2811 50.378 14.4198C50.3205 14.5584 50.291 14.707 50.291 14.8571C50.291 15.0072 50.3205 15.1558 50.378 15.2944C50.4354 15.433 50.5196 15.559 50.6257 15.6651C50.7318 15.7712 50.8578 15.8554 50.9964 15.9129C51.1351 15.9703 51.2837 15.9998 51.4337 15.9998C51.5838 15.9998 51.7324 15.9703 51.871 15.9129C52.0097 15.8554 52.1356 15.7712 52.2418 15.6651L59.0982 8.80866C59.1516 8.75515 59.1996 8.69651 59.2415 8.63357C59.2599 8.60602 59.2725 8.57609 59.2883 8.54729C59.3096 8.5116 59.329 8.47478 59.3464 8.437C59.3604 8.39907 59.3724 8.36041 59.3823 8.3212C59.3919 8.28863 59.4045 8.25745 59.4112 8.22376C59.4406 8.07598 59.4406 7.92385 59.4112 7.77607C59.4045 7.74238 59.3919 7.71127 59.3823 7.67869C59.3724 7.63946 59.3604 7.60078 59.3464 7.56283C59.329 7.52502 59.3096 7.48819 59.2883 7.45248C59.2725 7.42374 59.2599 7.39381 59.2415 7.36626C59.1996 7.30333 59.1516 7.24468 59.0982 7.19118L52.2418 0.334701C52.0275 0.120396 51.7368 -5.97431e-09 51.4337 0C51.1306 5.97431e-09 50.84 0.120396 50.6257 0.334701C50.4114 0.549007 50.291 0.839667 50.291 1.14274C50.291 1.44581 50.4114 1.73648 50.6257 1.95078L55.5317 6.85706H49.4153C46.3233 6.86021 43.2766 7.59982 40.5273 9.01463C37.778 10.4295 35.4053 12.4788 33.6055 14.993L33.2645 15.4704C33.0884 15.717 33.0174 16.0236 33.0672 16.3225C33.117 16.6215 33.2836 16.8885 33.5302 17.0647ZM23.6227 30.9353C23.5007 30.848 23.3625 30.7856 23.2163 30.7516C23.0701 30.7177 22.9186 30.713 22.7705 30.7376C22.6225 30.7623 22.4807 30.8159 22.3534 30.8954C22.226 30.9749 22.1156 31.0787 22.0284 31.2009L21.6875 31.6783C20.0995 33.8968 18.0059 35.7051 15.5801 36.9535C13.1542 38.2019 10.4659 38.8545 7.73762 38.8572H1.14775C0.84464 38.8572 0.553948 38.9776 0.33962 39.192C0.125291 39.4063 0.00488281 39.697 0.00488281 40.0001C0.00488281 40.3032 0.125291 40.5939 0.33962 40.8082C0.553948 41.0225 0.84464 41.1429 1.14775 41.1429H7.73762C10.8296 41.1398 13.8763 40.4002 16.6256 38.9854C19.3749 37.5705 21.7477 35.5212 23.5474 33.007L23.8884 32.5296C24.0645 32.283 24.1355 31.9764 24.0857 31.6775C24.0359 31.3785 23.8694 31.1115 23.6227 30.9353Z" fill="black"/>
</svg>
