<svg width="56" height="48" viewBox="0 0 56 48" fill="none" xmlns="http://www.w3.org/2000/svg">
<path d="M27.6665 8.74192C24.7329 5.00816 20.2107 1.2744 9.00301 1.0004C8.26685 0.98243 7.6665 1.58038 7.6665 2.31675C7.6665 7.77936 7.6665 28.4601 7.6665 34.5764C7.6665 35.3126 8.2669 35.891 9.00288 35.915C20.2106 36.2814 24.7329 41.2505 27.6665 44.9844M27.6665 8.74192C30.6001 5.00816 35.1222 1.2744 46.33 1.0004C47.0662 0.98243 47.6665 1.56694 47.6665 2.30331C47.6665 8.4096 47.6665 28.4681 47.6665 34.5745C47.6665 35.3108 47.0662 35.891 46.3302 35.915C35.1225 36.2814 30.6001 41.2505 27.6665 44.9844M27.6665 8.74192V44.9844" stroke="black" stroke-width="2" stroke-linejoin="round"/>
<path d="M46.9608 6.31769H53C53.7363 6.31769 54.3333 6.91465 54.3333 7.65102V42.4217C54.3333 43.5006 53.0621 44.2174 52.076 43.7793C49.9557 42.8372 46.4173 41.6862 41.7843 41.6862C33.9411 41.6862 27.6667 46.3177 27.6667 46.3177C27.6667 46.3177 21.3922 41.6862 13.549 41.6862C8.91587 41.6862 5.37749 42.8372 3.25725 43.7793C2.27115 44.2174 1 43.5006 1 42.4217V7.65102C1 6.91465 1.59696 6.31769 2.33333 6.31769H8.37256" stroke="black" stroke-width="2" stroke-linejoin="round"/>
</svg>
